<?xml version="1.0" standalone="no"?><!DOCTYPE svg PUBLIC "-//W3C//DTD SVG 1.1//EN" "http://www.w3.org/Graphics/SVG/1.1/DTD/svg11.dtd"><svg t="1664443769547" class="icon" viewBox="0 0 1024 1024" version="1.1" xmlns="http://www.w3.org/2000/svg" p-id="10518" xmlns:xlink="http://www.w3.org/1999/xlink" width="32" height="32"><path d="M923.6 388.1H798V262c0-19.9-16.1-36-36-36H636.3V99.8c0-19.9-16.1-36-36-36h-500c-19.9 0-36 16.1-36 36v500c0 19.9 16.1 36 36 36H226V762c0 19.9 16.1 36 36 36h125.6v126.1c0 19.9 16.1 36 36 36h500c19.9 0 36-16.1 36-36v-500c0-19.8-16.1-36-36-36zM136.3 135.8h428v428H136.3v-428z m751.3 752.3h-428V798H762c19.9 0 36-16.1 36-36V460.1h89.6v428z" p-id="10519" fill="#1296db"></path></svg>