<?xml version="1.0" standalone="no"?><!DOCTYPE svg PUBLIC "-//W3C//DTD SVG 1.1//EN" "http://www.w3.org/Graphics/SVG/1.1/DTD/svg11.dtd"><svg t="1664519446859" class="icon" viewBox="0 0 1024 1024" version="1.1" xmlns="http://www.w3.org/2000/svg" p-id="15558" data-spm-anchor-id="a313x.7781069.0.i30" xmlns:xlink="http://www.w3.org/1999/xlink" width="16" height="16"><path d="M837.818182 919.272727H186.181818A81.454545 81.454545 0 0 1 104.727273 837.818182v-93.090909a34.909091 34.909091 0 0 1 69.818182 0v93.090909a11.636364 11.636364 0 0 0 11.636363 11.636363h651.636364a11.636364 11.636364 0 0 0 11.636363-11.636363v-93.090909a34.909091 34.909091 0 0 1 69.818182 0v93.090909a81.454545 81.454545 0 0 1-81.454545 81.454545zM512 640.465455A34.909091 34.909091 0 0 1 477.090909 605.090909V139.636364a34.909091 34.909091 0 0 1 69.818182 0v465.454545a34.909091 34.909091 0 0 1-34.909091 35.374546z" p-id="15559" fill="#4591f7"></path><path d="M512 700.276364a35.141818 35.141818 0 0 1-24.669091-10.24l-232.727273-232.727273a34.676364 34.676364 0 0 1 0-49.338182 35.141818 35.141818 0 0 1 49.338182 0l232.727273 232.727273a34.676364 34.676364 0 0 1 0 49.338182 35.141818 35.141818 0 0 1-24.669091 10.24z" p-id="15560" fill="#4591f7"></path><path d="M512 700.276364a35.141818 35.141818 0 0 1-24.669091-10.24 34.676364 34.676364 0 0 1 0-49.338182l232.727273-232.727273a35.141818 35.141818 0 0 1 49.338182 0 34.676364 34.676364 0 0 1 0 49.338182l-232.727273 232.727273a35.141818 35.141818 0 0 1-24.669091 10.24z" p-id="15561" fill="#4591f7"></path></svg>