<?xml version="1.0" standalone="no"?><!DOCTYPE svg PUBLIC "-//W3C//DTD SVG 1.1//EN" "http://www.w3.org/Graphics/SVG/1.1/DTD/svg11.dtd"><svg t="1684372043460" class="icon" viewBox="0 0 1025 1024" version="1.1" xmlns="http://www.w3.org/2000/svg" p-id="23465" xmlns:xlink="http://www.w3.org/1999/xlink" width="24.0234375" height="24"><path d="M512.998 3.984C230.248 3.984 1 233.232 1 515.982c0 174.132 86.967 327.936 219.809 420.439 0.563-1.968 1.19-3.884 1.791-5.82 0.378-1.216 0.733-2.447 1.124-3.658a289.835 289.835 0 0 1 4.256-12.26c0.078-0.22 0.175-0.43 0.253-0.646a286.008 286.008 0 0 1 4.533-11.284c0.487-1.141 1.001-2.271 1.501-3.402a275.57 275.57 0 0 1 10.033-20.477c0.508-0.94 0.996-1.887 1.512-2.813a276.429 276.429 0 0 1 13.319-21.552c0.64-0.937 1.303-1.847 1.947-2.772a294.244 294.244 0 0 1 7.792-10.563c1-1.291 1.996-2.581 3.018-3.854l0.179-341.416h0.065c-0.074-2.437-0.183-4.86-0.183-7.319 0-10.217 0.708-20.262 1.942-30.146 0.138-1.184 0.295-2.354 0.45-3.532 0.239-1.739 0.49-3.474 0.771-5.201 6.657-43.345 25.133-82.274 51.596-114.095 44.211-53.777 111.244-88.088 186.294-88.088 102.279-6.966 249.918 89.409 241.412 248.381-0.041 0.022-0.081 0.043-0.111 0.068l0.171 341.589c1.091 1.355 2.142 2.741 3.207 4.118 0.506 0.645 1.001 1.306 1.497 1.956a283.69 283.69 0 0 1 6.62 9.117c0.284 0.421 0.585 0.825 0.876 1.241a279.093 279.093 0 0 1 13.986 22.647l0.344 0.642a274.158 274.158 0 0 1 6.506 12.605 292.354 292.354 0 0 1 5.104 11.099l0.415 0.945a286.075 286.075 0 0 1 9.623 25.761c0.1 0.29 0.189 0.595 0.279 0.891 0.811 2.572 1.643 5.135 2.388 7.746-0.035 0.025-0.065 0.045-0.095 0.07C938.051 843.902 1025 690.104 1025 515.99 1024.995 233.23 795.752 3.984 512.998 3.984z" fill="#A0D9F6" p-id="23466"></path><path d="M278.047 826.313a268.882 268.882 0 0 1 8.321-9.368l0.175-0.18a289.412 289.412 0 0 1 8.439-8.587c0.921-0.892 1.869-1.782 2.801-2.662a267.63 267.63 0 0 1 9.633-8.728c0.274-0.25 0.545-0.49 0.828-0.74v0.04c24.161-20.717 52.149-37.44 83.233-49.529a317.282 317.282 0 0 1 6.162-2.353c2.024-0.73 4.062-1.461 6.11-2.151a256.42 256.42 0 0 1 6.271-2.042c2.038-0.66 4.07-1.321 6.14-1.932 2.52-0.75 5.076-1.432 7.629-2.111a295.898 295.898 0 0 1 9.019-2.303c2.649-0.63 5.306-1.271 7.989-1.84 1.999-0.432 4.021-0.802 6.038-1.191a322.536 322.536 0 0 1 13.428-2.332c2.743-0.421 5.487-0.801 8.237-1.151 1.769-0.22 3.521-0.47 5.299-0.67 4.568-0.53 9.146-0.961 13.726-1.321h51.486c4.614 0.351 9.173 0.801 13.706 1.321 1.797 0.2 3.558 0.45 5.339 0.67 2.738 0.351 5.454 0.73 8.167 1.142 2.037 0.31 4.073 0.641 6.09 0.98 2.442 0.42 4.859 0.881 7.271 1.341 2.061 0.401 4.123 0.78 6.159 1.222 2.572 0.55 5.1 1.15 7.641 1.761 3.273 0.791 6.521 1.601 9.754 2.482 2.386 0.641 4.769 1.28 7.131 1.981 2.142 0.63 4.242 1.311 6.345 1.991 2.016 0.641 4.033 1.291 6.02 1.962 2.121 0.73 4.219 1.48 6.305 2.231 1.986 0.73 3.938 1.472 5.905 2.241 30.52 11.87 58.051 28.213 81.93 48.42v-0.11c0.821 0.69 1.622 1.432 2.438 2.142a297.274 297.274 0 0 1 9.856 8.967c0.731 0.69 1.472 1.381 2.188 2.082a269.207 269.207 0 0 1 17.384 18.625c0.4 0.46 0.781 0.931 1.171 1.4a249.532 249.532 0 0 1 3.688 4.455l-0.166-339.996 0.11-0.063c8.467-158.238-138.485-254.163-240.284-247.226l-0.105 0.235c-71.715-0.492-140.12 33.09-185.321 87.438-26.346 31.671-44.73 70.419-51.355 113.563-0.264 1.719-0.541 3.436-0.769 5.172-0.152 1.171-0.311 2.345-0.448 3.518a237.316 237.316 0 0 0-1.346 37.18c63.357 38.196 131.421 7.992 200.067-104.959 49.237 87.202 215.295 144.48 279.026 105.396-4.033 128.993-109.793 232.325-239.749 232.325-130.067 0-235.885-103.513-239.756-232.65h-0.064l-0.178 339.826c0.931-1.15 1.888-2.281 2.835-3.413 0.675-0.83 1.354-1.69 2.051-2.501z" fill="#5C4948" p-id="23467"></path><path d="M275.59 451.585c0.226-1.733 0.505-3.45 0.764-5.173a249.787 249.787 0 0 0-0.764 5.173z m237.452-206.177l0.101-0.233c-74.707 0-141.429 34.143-185.429 87.678 45.199-54.346 113.603-87.936 185.328-87.445z m0.101 479.644c129.962 0 235.717-103.353 239.745-232.336-63.727 39.091-229.784-18.189-279.021-105.393-68.648 112.953-136.718 143.163-200.071 104.957a237.66 237.66 0 0 1 1.346-37.177 242.029 242.029 0 0 0-1.928 30.008c0 2.44 0.109 4.859 0.18 7.29 3.862 129.128 109.682 232.651 239.749 232.651z" fill="#FCE9EA" p-id="23468"></path><path d="M234.214 897.35c0.483-1.141 0.996-2.252 1.493-3.383-0.497 1.131-1.01 2.242-1.493 3.383z m-4.772 11.869c0.081-0.199 0.176-0.419 0.259-0.64-0.083 0.221-0.178 0.441-0.259 0.64z m-5.349 15.853c0.379-1.211 0.734-2.441 1.122-3.643-0.388 1.202-0.743 2.432-1.122 3.643z m555.461-53.714l0.345 0.641c-0.12-0.199-0.231-0.42-0.345-0.641z m-22.873-34.787c0.495 0.641 0.99 1.291 1.485 1.941-0.495-0.65-0.99-1.3-1.485-1.941z m34.772 59.017l0.415 0.952-0.415-0.952zM245.69 873.581c0.506-0.94 0.991-1.882 1.507-2.802-0.515 0.92-1.006 1.871-1.507 2.802z m14.765-24.25c0.634-0.931 1.292-1.841 1.935-2.762-0.646 0.91-1.301 1.831-1.935 2.762z m504.307-1.741z m36.678 74.58c0.101 0.289 0.186 0.601 0.281 0.881-0.095-0.28-0.18-0.58-0.281-0.881z m-62.303 47.058z m-22.384-174.33c-23.874-20.197-51.411-36.55-81.936-48.41 0.791 0.291 1.571 0.611 2.343 0.912v133.406H386.999V748.311c1.483-0.61 2.979-1.182 4.476-1.751-31.086 12.089-59.069 28.813-83.233 49.529v182.997c62.707 27.572 132.01 42.914 204.901 42.914 81.082 0 157.734-18.976 225.783-52.673a525.56 525.56 0 0 1-22.178 10.259V794.898h0.005z m-248.258-67.745c1.766-0.24 3.526-0.479 5.299-0.67-1.779 0.191-3.535 0.43-5.299 0.67z m-181.952 89.613l-0.175 0.18 0.175-0.18z m-8.496 9.547c-0.697 0.811-1.376 1.671-2.069 2.491 0.693-0.82 1.372-1.68 2.069-2.491z m131.966-86.309c2.044-0.65 4.075-1.312 6.143-1.922-2.065 0.61-4.097 1.272-6.143 1.922z m30.784-8.176c1.994-0.432 4.021-0.792 6.038-1.191-2.018 0.389-4.039 0.759-6.038 1.191z m-145.815 76.351c0.921-0.892 1.869-1.782 2.801-2.662-0.931 0.879-1.88 1.77-2.801 2.662z m284.592-77.563c2.056 0.41 4.118 0.78 6.154 1.222-2.036-0.442-4.098-0.82-6.154-1.222z m170.22 97.388c-0.39-0.47-0.77-0.94-1.166-1.4 0.396 0.459 0.776 0.93 1.166 1.4zM552.701 726.483c1.798 0.19 3.563 0.45 5.34 0.67-1.776-0.219-3.542-0.479-5.34-0.67z m176.347 79.404c0.736 0.7 1.472 1.4 2.197 2.092-0.725-0.692-1.472-1.392-2.197-2.092z m-118.795-67.824c2.132 0.63 4.238 1.311 6.346 1.981-2.103-0.671-4.214-1.352-6.346-1.981z" fill="#758FC8" p-id="23469"></path><path d="M622.617 742.016a470.954 470.954 0 0 0-6.014-1.972c-2.107-0.671-4.219-1.352-6.351-1.981-2.356-0.701-4.754-1.341-7.12-1.981a329.803 329.803 0 0 0-9.759-2.492 402.38 402.38 0 0 0-7.646-1.751c-2.036-0.441-4.099-0.82-6.154-1.222a316.529 316.529 0 0 0-13.366-2.321c-2.703-0.421-5.43-0.791-8.167-1.142-1.776-0.22-3.542-0.479-5.329-0.67-4.563-0.53-9.128-0.971-13.716-1.321h-51.481c-4.586 0.351-9.162 0.791-13.726 1.321-1.779 0.19-3.536 0.43-5.299 0.67-4.77 0.591-9.523 1.312-14.26 2.112-2.475 0.43-4.944 0.891-7.408 1.371-2.012 0.39-4.039 0.76-6.04 1.191a379.158 379.158 0 0 0-17.006 4.123c-2.553 0.69-5.111 1.381-7.631 2.131-2.067 0.61-4.101 1.271-6.138 1.922-2.103 0.66-4.196 1.341-6.272 2.052-2.05 0.69-4.084 1.421-6.108 2.151-2.068 0.762-4.12 1.552-6.162 2.342-1.491 0.58-2.99 1.151-4.474 1.762v132.496h250.17V747.4l-2.353-0.922a284.423 284.423 0 0 0-5.896-2.241 372.333 372.333 0 0 0-6.294-2.221zM513.143 848c-8.377 0-15.17-6.774-15.17-15.162 0-8.366 6.793-15.161 15.17-15.161 8.374 0 15.17 6.795 15.17 15.161 0 8.388-6.796 15.162-15.17 15.162z m0-54.895c-8.377 0-15.17-6.785-15.17-15.161 0-8.377 6.793-15.162 15.17-15.162 8.374 0 15.17 6.785 15.17 15.162 0 8.376-6.796 15.161-15.17 15.161z m-204.902 2.984v-0.04l-0.83 0.74a263.937 263.937 0 0 0-9.628 8.728c-0.939 0.88-1.885 1.771-2.803 2.662a288.182 288.182 0 0 0-8.439 8.587l-0.173 0.18a263.846 263.846 0 0 0-8.326 9.368c-0.7 0.811-1.379 1.671-2.069 2.491-0.943 1.142-1.899 2.272-2.832 3.423a219.949 219.949 0 0 0-3.005 3.823 297.068 297.068 0 0 0-7.754 10.519c-0.643 0.921-1.304 1.831-1.938 2.762a276.086 276.086 0 0 0-13.257 21.448c-0.513 0.92-1.006 1.871-1.504 2.802a279.238 279.238 0 0 0-6.14 12 276.325 276.325 0 0 0-3.847 8.386c-0.498 1.131-1.009 2.242-1.497 3.383a281.103 281.103 0 0 0-4.509 11.229c-0.085 0.221-0.177 0.44-0.253 0.64a296.475 296.475 0 0 0-4.235 12.211c-0.391 1.201-0.741 2.432-1.12 3.643-0.594 1.932-1.222 3.844-1.782 5.784l1.309 0.911a502.455 502.455 0 0 0 13.277 8.897c0.464 0.3 0.919 0.609 1.379 0.91 4.434 2.862 8.935 5.604 13.461 8.316a523.594 523.594 0 0 0 16.078 9.238 542.121 542.121 0 0 0 22.44 11.649 552.805 552.805 0 0 0 11.061 5.214c2.293 1.051 4.604 2.071 6.917 3.093V796.089h0.019z m497.293 136.129c-0.751-2.612-10.073-27.292-13.671-35.698l-0.42-0.932a267.025 267.025 0 0 0-5.08-11.048l-0.785-1.621a287.721 287.721 0 0 0-5.68-10.929l-0.345-0.642a279.557 279.557 0 0 0-13.922-22.527 96.284 96.284 0 0 0-0.87-1.241 262.474 262.474 0 0 0-6.596-9.077c-0.495-0.65-0.99-1.291-1.485-1.932-1.062-1.381-2.106-2.763-3.193-4.114-1.211-1.5-2.451-2.971-3.693-4.453-0.395-0.47-0.775-0.95-1.171-1.421a273.366 273.366 0 0 0-17.378-18.604c-0.726-0.701-1.472-1.392-2.197-2.092a278.122 278.122 0 0 0-9.857-8.957c-0.815-0.711-1.612-1.452-2.438-2.143v184.769c3.503-0.791 24.995-8.857 51.861-22.728 26.862-13.882 36.92-24.61 36.92-24.61z" fill="#FEFEFE" p-id="23470"></path><path d="M497.973 777.944c-0.01 8.376 6.773 15.173 15.146 15.182 8.378 0.021 15.174-6.755 15.184-15.142v-0.04c0-8.377-6.785-15.162-15.159-15.162-8.378 0-15.171 6.785-15.171 15.162z m0 54.904c-0.01 8.378 6.773 15.183 15.146 15.183 8.378 0.011 15.174-6.765 15.184-15.152v-0.03c0-8.376-6.785-15.171-15.159-15.171-8.378-0.001-15.171 6.794-15.171 15.17z" fill="#758FC8" p-id="23471"></path></svg>