<?xml version="1.0" encoding="utf-8"?>
<svg version="1.1" xmlns:xlink="http://www.w3.org/1999/xlink" width="30px" height="30px" xmlns="http://www.w3.org/2000/svg">
  <g transform="matrix(1 0 0 1 -668 -55 )">
    <path d="M 7.65324519230769 22.6302083333333  C 8.10396634615385 23.0642361111111  8.32932692307692 23.587962962963  8.32932692307692 24.2013888888889  C 8.32932692307692 24.8148148148148  8.10396634615385 25.3385416666667  7.65324519230769 25.7725694444444  C 7.20252403846154 26.2065972222222  6.65865384615385 26.4236111111111  6.02163461538462 26.4236111111111  C 5.39663461538462 26.4236111111111  4.85576923076923 26.2037037037037  4.39903846153846 25.7638888888889  C 3.94230769230769 25.3240740740741  3.71394230769231 24.8032407407407  3.71394230769231 24.2013888888889  C 3.71394230769231 23.587962962963  3.93930288461538 23.0642361111111  4.39002403846154 22.6302083333333  C 4.84074519230769 22.1961805555556  5.38461538461539 21.9791666666667  6.02163461538462 21.9791666666667  C 6.65865384615385 21.9791666666667  7.20252403846154 22.1961805555556  7.65324519230769 22.6302083333333  Z M 16.6316105769231 26.2065972222222  C 17.0823317307692 26.640625  17.3076923076923 27.1643518518519  17.3076923076923 27.7777777777778  C 17.3076923076923 28.3912037037037  17.0823317307692 28.9149305555556  16.6316105769231 29.3489583333333  C 16.1808894230769 29.7829861111111  15.6370192307692 30  15 30  C 14.3629807692308 30  13.8191105769231 29.7829861111111  13.3683894230769 29.3489583333333  C 12.9176682692308 28.9149305555556  12.6923076923077 28.3912037037037  12.6923076923077 27.7777777777778  C 12.6923076923077 27.1643518518519  12.9176682692308 26.640625  13.3683894230769 26.2065972222222  C 13.8191105769231 25.7725694444444  14.3629807692308 25.5555555555556  15 25.5555555555556  C 15.6370192307692 25.5555555555556  16.1808894230769 25.7725694444444  16.6316105769231 26.2065972222222  Z M 3.93930288461538 13.984375  C 4.39002403846154 14.4184027777778  4.61538461538462 14.9421296296296  4.61538461538462 15.5555555555556  C 4.61538461538462 16.1689814814815  4.39002403846154 16.6927083333333  3.93930288461538 17.1267361111111  C 3.48858173076923 17.5607638888889  2.94471153846154 17.7777777777778  2.30769230769231 17.7777777777778  C 1.67067307692308 17.7777777777778  1.12680288461538 17.5607638888889  0.676081730769231 17.1267361111111  C 0.225360576923077 16.6927083333333  0 16.1689814814815  0 15.5555555555556  C 0 14.9421296296296  0.225360576923077 14.4184027777778  0.676081730769231 13.984375  C 1.12680288461538 13.5503472222222  1.67067307692308 13.3333333333333  2.30769230769231 13.3333333333333  C 2.94471153846154 13.3333333333333  3.48858173076923 13.5503472222222  3.93930288461538 13.984375  Z M 25.6099759615385 22.6302083333333  C 26.0606971153846 23.0642361111111  26.2860576923077 23.587962962963  26.2860576923077 24.2013888888889  C 26.2860576923077 24.8032407407407  26.0576923076923 25.3240740740741  25.6009615384615 25.7638888888889  C 25.1442307692308 26.2037037037037  24.6033653846154 26.4236111111111  23.9783653846154 26.4236111111111  C 23.3413461538462 26.4236111111111  22.7974759615385 26.2065972222222  22.3467548076923 25.7725694444444  C 21.8960336538462 25.3385416666667  21.6706730769231 24.8148148148148  21.6706730769231 24.2013888888889  C 21.6706730769231 23.587962962963  21.8960336538462 23.0642361111111  22.3467548076923 22.6302083333333  C 22.7974759615385 22.1961805555556  23.3413461538462 21.9791666666667  23.9783653846154 21.9791666666667  C 24.6153846153846 21.9791666666667  25.1592548076923 22.1961805555556  25.6099759615385 22.6302083333333  Z M 8.05889423076923 4.94791666666667  C 8.62379807692308 5.49189814814815  8.90625 6.14583333333333  8.90625 6.90972222222222  C 8.90625 7.67361111111111  8.62379807692308 8.32754629629629  8.05889423076923 8.87152777777778  C 7.49399038461539 9.41550925925926  6.81490384615385 9.6875  6.02163461538462 9.6875  C 5.22836538461538 9.6875  4.54927884615385 9.41550925925926  3.984375 8.87152777777778  C 3.41947115384615 8.32754629629629  3.13701923076923 7.67361111111111  3.13701923076923 6.90972222222222  C 3.13701923076923 6.14583333333333  3.41947115384615 5.49189814814815  3.984375 4.94791666666667  C 4.54927884615385 4.40393518518518  5.22836538461538 4.13194444444445  6.02163461538462 4.13194444444445  C 6.81490384615385 4.13194444444445  7.49399038461539 4.40393518518518  8.05889423076923 4.94791666666667  Z M 29.3239182692308 13.984375  C 29.7746394230769 14.4184027777778  30 14.9421296296296  30 15.5555555555556  C 30 16.1689814814815  29.7746394230769 16.6927083333333  29.3239182692308 17.1267361111111  C 28.8731971153846 17.5607638888889  28.3293269230769 17.7777777777778  27.6923076923077 17.7777777777778  C 27.0552884615385 17.7777777777778  26.5114182692308 17.5607638888889  26.0606971153846 17.1267361111111  C 25.6099759615385 16.6927083333333  25.3846153846154 16.1689814814815  25.3846153846154 15.5555555555556  C 25.3846153846154 14.9421296296296  25.6099759615385 14.4184027777778  26.0606971153846 13.984375  C 26.5114182692308 13.5503472222222  27.0552884615385 13.3333333333333  27.6923076923077 13.3333333333333  C 28.3293269230769 13.3333333333333  28.8731971153846 13.5503472222222  29.3239182692308 13.984375  Z M 17.4519230769231 0.972222222222223  C 18.125 1.62037037037037  18.4615384615385 2.4074074074074  18.4615384615385 3.33333333333333  C 18.4615384615385 4.25925925925926  18.125 5.04629629629629  17.4519230769231 5.69444444444444  C 16.7788461538462 6.34259259259259  15.9615384615385 6.66666666666667  15 6.66666666666667  C 14.0384615384615 6.66666666666667  13.2211538461538 6.34259259259259  12.5480769230769 5.69444444444444  C 11.875 5.04629629629629  11.5384615384615 4.25925925925926  11.5384615384615 3.33333333333333  C 11.5384615384615 2.4074074074074  11.875 1.62037037037037  12.5480769230769 0.972222222222223  C 13.2211538461538 0.324074074074076  14.0384615384615 0  15 0  C 15.9615384615385 0  16.7788461538462 0.324074074074076  17.4519230769231 0.972222222222223  Z M 26.8269230769231 4.16666666666667  C 27.6201923076923 4.93055555555556  28.0168269230769 5.84490740740741  28.0168269230769 6.90972222222222  C 28.0168269230769 7.98611111111111  27.6201923076923 8.90335648148148  26.8269230769231 9.66145833333334  C 26.0336538461538 10.4195601851852  25.0841346153846 10.7986111111111  23.9783653846154 10.7986111111111  C 22.8605769230769 10.7986111111111  21.9080528846154 10.4195601851852  21.1207932692308 9.66145833333334  C 20.3335336538462 8.90335648148148  19.9399038461538 7.98611111111111  19.9399038461538 6.90972222222222  C 19.9399038461538 5.84490740740741  20.3335336538462 4.93055555555556  21.1207932692308 4.16666666666667  C 21.9080528846154 3.40277777777778  22.8605769230769 3.02083333333333  23.9783653846154 3.02083333333333  C 25.0841346153846 3.02083333333333  26.0336538461538 3.40277777777778  26.8269230769231 4.16666666666667  Z " fill-rule="nonzero" fill="#000000" stroke="none" fill-opacity="0.647058823529412" transform="matrix(1 0 0 1 668 55 )" />
  </g>
</svg>