<?xml version="1.0" standalone="no"?><!DOCTYPE svg PUBLIC "-//W3C//DTD SVG 1.1//EN" "http://www.w3.org/Graphics/SVG/1.1/DTD/svg11.dtd"><svg t="1664518436336" class="icon" viewBox="0 0 1024 1024" version="1.1" xmlns="http://www.w3.org/2000/svg" p-id="13058" width="16" height="16" xmlns:xlink="http://www.w3.org/1999/xlink"><path d="M576.02048 114.31936 973.70112 512 576.02048 909.68064 576.02048 694.4768c-12.8-0.75776-27.2384-1.25952-43.12064-1.25952-115.6096 0-306.5856 26.69568-482.60096 173.80352 0 0 60.8256-423.30112 525.7216-510.1568L576.02048 114.31936M576 65.09568c-6.32832 0-12.72832 1.2288-18.82112 3.74784-18.39104 7.61856-30.39232 25.56928-30.39232 45.47584l0 202.67008c-232.192 55.18336-361.3696 192.6656-429.64992 301.33248C19.16928 742.42048 2.26304 855.25504 1.57696 860.01664c-2.89792 20.18304 6.94272 40.05888 24.75008 49.98144 7.48544 4.17792 15.74912 6.23616 23.9616 6.23616 11.30496 0 22.51776-3.88096 31.56992-11.45856 157.78816-131.86048 327.91552-161.34144 444.928-162.304l0 167.19872c0 19.9168 12.00128 37.85728 30.39232 45.47584 6.0928 2.51904 12.4928 3.7376 18.82112 3.7376 12.82048 0 25.40544-4.99712 34.82624-14.41792l397.68064-397.68064c9.22624-9.216 14.41792-21.73952 14.41792-34.79552 0-13.056-5.19168-25.57952-14.41792-34.80576L610.82624 79.5136C601.40544 70.0928 588.82048 65.09568 576 65.09568L576 65.09568z" p-id="13059" fill="#4591f7"></path></svg>