
<svg xmlns="http://www.w3.org/2000/svg" version="1.1" xmlns:xlink="http://www.w3.org/1999/xlink" preserveAspectRatio="none" x="0px" y="0px" width="1024px" height="1024px" viewBox="0 0 1024 1024">
<defs>
<g id="Layer0_0_MEMBER_0_FILL">
<path fill="#1D1D1B" fill-opacity="0.09803921568627451" stroke="none" d="
M 42.55 2.05
Q 60.2 2.05 72.7 1.75 85.15 1.45 85.15 1.05 85.15 0.6 72.7 0.3 60.35 0 42.55 0 24.8 0 12.45 0.3 0 0.6 0 1.05 0 1.45 12.45 1.75 24.95 2.05 42.55 2.05 Z"/>
</g>

<g id="Layer0_0_MEMBER_1_MEMBER_0_FILL">
<path fill="#E94E1B" stroke="none" d="
M 342.75 295.45
Q 342.5 295.45 342.4 296.1
L 342.05 298.45
Q 341.95 299.35 342.35 299.35
L 342.55 299.4
Q 342.85 299.4 342.95 298.7
L 343.2 296.3
Q 343.3 295.5 342.9 295.5
L 342.75 295.45 Z"/>
</g>

<g id="Layer0_0_MEMBER_1_MEMBER_1_FILL">
<path fill="#F9B659" stroke="none" d="
M 425.7 294.7
L 425.25 294.6 425.65 299.95 426.35 299.9
Q 427.05 299.8 426.95 299
L 426.55 295.7
Q 426.45 294.85 425.7 294.7 Z"/>
</g>

<g id="Layer0_0_MEMBER_1_MEMBER_2_FILL">
<path fill="#61C3DA" stroke="none" d="
M 425.8 294.45
L 424.55 294.45 425.4 300.1 426.4 300.05 425.8 294.45 Z"/>
</g>

<g id="Layer0_0_MEMBER_1_MEMBER_3_FILL">
<path fill="#DAD1D1" stroke="none" d="
M 425.2 303.5
Q 425.2 304 425.65 304
L 426.75 304.05
Q 427.2 304.05 427.3 303.6
L 427.55 301.8
Q 427.65 301.15 427 301.15
L 425.55 301.15 425.2 303.5 Z"/>
</g>

<g id="Layer0_0_MEMBER_1_MEMBER_4_FILL">
<path fill="#4AA2B7" stroke="none" d="
M 423.45 293.15
Q 422.85 293 421.4 292.95
L 404.3 291.55
Q 403.65 291.55 403.2 291.35
L 402.95 291.3
Q 402.35 291.1 401.5 290.55
L 393.45 284.35
Q 392.65 283.7 391.6 283.7
L 363.25 283.7
Q 361.55 283.7 359.75 284.25
L 356.25 285.55
Q 350.5 288.05 346.45 291.7
L 345.9 292.2
Q 344.55 293.4 343.65 294.55 342.95 295.45 342.9 295.75
L 342.45 300.3
Q 342.25 301.85 343.25 303.1 344.25 304.3 345.85 304.4
L 354.25 305.25 417.3 305.25 423.35 304.45
Q 424.35 304.35 425.05 303.65 425.75 302.95 425.85 301.95
L 425.2 295.05
Q 425.15 294.6 424.9 294.2 424.45 293.4 423.45 293.15 Z"/>
</g>

<g id="Layer0_0_MEMBER_1_MEMBER_5_FILL">
<path fill="#61C3DA" stroke="none" d="
M 391.6 284.5
L 380.75 284.5 381.55 295.9 380.75 304.45 402.1 304.45 403.2 296.2 402.1 291.85
Q 401.4 291.5 401 291.15
L 392.95 284.95
Q 392.45 284.5 391.6 284.5 Z"/>
</g>

<g id="Layer0_0_MEMBER_1_MEMBER_6_MEMBER_0_FILL">
<path fill="#ABEDE3" stroke="none" d="
M 381.6 285.3
L 382.05 291.95 400.7 291.95 392.5 285.6
Q 392.15 285.3 391.6 285.3
L 381.6 285.3 Z"/>
</g>

<g id="Layer0_0_MEMBER_1_MEMBER_6_MEMBER_1_FILL">
<path fill="#FFFFFF" stroke="none" d="
M 381.35 285.05
L 381.85 292.2 401.5 292.2 400.8 291.65 400.7 291.6 392.65 285.4
Q 392.25 285.05 391.6 285.05
L 381.35 285.05
M 382.3 291.65
L 381.9 285.55 391.6 285.55
Q 391.95 285.55 392.35 285.8
L 399.95 291.65 382.3 291.65 Z"/>
</g>

<g id="Layer0_0_MEMBER_1_MEMBER_7_FILL">
<path fill="#61C3DA" stroke="none" d="
M 361.85 291
Q 361.3 291.8 361.3 292.8
L 361.35 296.65
Q 363.75 297.35 365.45 299.6 367.05 301.8 367.3 304.45
L 379.95 304.45 380.75 295.9 379.95 284.5 367.95 284.5
Q 366.5 284.5 365.6 285.7
L 361.85 291 Z"/>
</g>

<g id="Layer0_0_MEMBER_1_MEMBER_8_MEMBER_0_FILL">
<path fill="#ABEDE3" stroke="none" d="
M 379.65 291.95
L 379.2 285.3 367.95 285.3
Q 366.9 285.3 366.25 286.2
L 362.25 291.95 379.65 291.95 Z"/>
</g>

<g id="Layer0_0_MEMBER_1_MEMBER_8_MEMBER_1_FILL">
<path fill="#FFFFFF" stroke="none" d="
M 379.95 292.2
L 379.45 285.05 367.95 285.05
Q 366.75 285.05 366.05 286.05
L 361.75 292.2 379.95 292.2
M 367.95 285.55
L 378.95 285.55 379.4 291.7 362.75 291.65 366.5 286.35
Q 367.05 285.55 367.95 285.55 Z"/>
</g>

<g id="Layer0_0_MEMBER_1_MEMBER_9_MEMBER_0_FILL">
<path fill="#ABEDE3" stroke="none" d="
M 346.45 291.7
L 346.15 291.95 353.1 291.95
Q 354.25 291.95 355 291.2
L 360.35 286.5
Q 360.75 286.2 360.55 285.75 360.4 285.3 359.9 285.3
L 356.9 285.3 356.25 285.55
Q 350.5 288.05 346.45 291.7 Z"/>
</g>

<g id="Layer0_0_MEMBER_1_MEMBER_9_MEMBER_1_FILL">
<path fill="#FFFFFF" stroke="none" d="
M 346.45 291.7
L 345.9 292.2 353.1 292.2
Q 354.25 292.2 355.2 291.4
L 360.55 286.7
Q 361.05 286.25 360.8 285.65 360.55 285.05 359.9 285.05
L 357.55 285.05 356.25 285.55 359.9 285.55
Q 360.2 285.55 360.3 285.85 360.4 286.1 360.2 286.3
L 354.85 291.05
Q 354.05 291.7 353.1 291.7
L 346.45 291.7 Z"/>
</g>

<g id="Layer0_0_MEMBER_1_MEMBER_10_FILL">
<path fill="#FFFFFF" stroke="none" d="
M 382.6 293.1
L 382.6 294.2 386.2 294.2 386.2 293.1 382.6 293.1 Z"/>
</g>

<g id="Layer0_0_MEMBER_1_MEMBER_11_FILL">
<path fill="#FFFFFF" stroke="none" d="
M 362.25 293.1
L 362.25 294.2 365.8 294.2 365.8 293.1 362.25 293.1 Z"/>
</g>

<g id="Layer0_0_MEMBER_1_MEMBER_12_FILL">
<path fill="#DAD1D1" stroke="none" d="
M 346 301.4
Q 345.45 300.8 344.6 300.8
L 342.4 300.8 342.45 300.3 342.05 300.3
Q 341.6 300.3 341.25 300.6 340.95 300.9 340.9 301.3
L 340.9 301.65
Q 340.85 302.05 341.2 302.35 341.45 302.6 341.9 302.65
L 346.6 302.85 346.6 302.8
Q 346.6 302 346 301.4 Z"/>
</g>

<g id="Layer0_0_MEMBER_1_MEMBER_13_FILL">
<path fill="#DAD1D1" stroke="none" d="
M 426.5 303.5
Q 426.9 303.5 427 303.1
L 427.2 302.3
Q 427.25 302.05 427.1 301.9 426.9 301.7 426.65 301.7
L 423.8 301.7
Q 423.4 301.7 423.3 302.1
L 423.1 302.9
Q 423.05 303.15 423.25 303.3 423.4 303.5 423.65 303.5
L 426.5 303.5 Z"/>
</g>

<g id="Layer0_0_MEMBER_1_MEMBER_14_FILL">
<path fill="#4AA2B7" stroke="none" d="
M 397.85 290.8
L 397.5 292.25 399.2 293 399.3 292.15 397.85 290.8 Z"/>
</g>

<g id="Layer0_0_MEMBER_1_MEMBER_15_FILL">
<path fill="#4AA2B7" stroke="none" d="
M 397 289.7
L 396.6 293.05 396.8 293.1
Q 397.5 293.2 398 292.65 398.45 292.1 398.3 291.4
L 398.05 290.5
Q 397.85 289.8 397.15 289.7
L 397 289.7 Z"/>
</g>

<g id="Layer0_0_MEMBER_1_MEMBER_16_FILL">
<path fill="#403430" stroke="none" d="
M 418.5 299.7
Q 417.65 299.2 416.4 299.2
L 412.1 299.2
Q 410.6 299.2 409.45 299.95 407.65 301.15 407.25 303.25
L 406.95 305.25 417.3 305.25 421.2 304.75 420.9 302.9
Q 420.5 300.75 418.5 299.7 Z"/>
</g>

<g id="Layer0_0_MEMBER_1_MEMBER_17_FILL">
<path fill="#403430" stroke="none" d="
M 365.4 305.25
L 365.05 302.9
Q 364.65 300.75 362.7 299.7 361.75 299.2 360.6 299.2
L 356.25 299.2
Q 354.8 299.2 353.6 299.95 351.8 301.15 351.45 303.25
L 351.2 305 354.25 305.25 365.4 305.25 Z"/>
</g>

<g id="Layer0_0_MEMBER_1_MEMBER_18_FILL">
<path fill="#1D1D1B" fill-opacity="0.09803921568627451" stroke="none" d="
M 86.65 5.4
Q 86.75 4.75 86.1 4.75
L 84.9 4.75 84.85 4.35 1.45 0 1.15 2.05
Q 1.05 2.95 1.45 2.95
L 1.65 3 1.55 3.9 1.15 3.9
Q 0.7 3.9 0.35 4.2 0.05 4.5 0 4.9
L 0 5.25
Q -0.05 5.65 0.3 5.95 0.55 6.2 1 6.25
L 2.1 6.3
Q 3.1 7.85 4.95 8
L 13.35 8.85 76.4 8.85 82.45 8.05
Q 83.55 7.95 84.25 7.1
L 84.3 7.1
Q 84.3 7.6 84.75 7.6
L 85.85 7.65
Q 86.3 7.65 86.4 7.2
L 86.65 5.4 Z"/>
</g>

<g id="Layer0_0_MEMBER_1_MEMBER_19_MEMBER_0_FILL">
<path fill="#DAD1D1" stroke="none" d="
M 411.3 301.25
Q 410.15 302.4 410.15 304 410.15 305.65 411.3 306.8 412.45 307.95 414.1 307.95 415.75 307.95 416.9 306.8 418.05 305.65 418.05 304 418.05 302.4 416.9 301.25 415.75 300.1 414.1 300.1 412.45 300.1 411.3 301.25 Z"/>
</g>

<g id="Layer0_0_MEMBER_1_MEMBER_19_MEMBER_1_FILL">
<path fill="#1D1715" stroke="none" d="
M 418.5 299.7
Q 417.65 299.2 416.4 299.2
L 412.1 299.2
Q 410.6 299.2 409.45 299.95 407.9 301.75 407.9 304.05
L 408.05 305.2
Q 408.45 307.35 410.15 308.75 411.85 310.2 414.1 310.2 416.35 310.2 418.05 308.75 419.75 307.35 420.15 305.2 420.3 304.6 420.3 304 420.3 301.5 418.5 299.7
M 417.75 305.2
Q 417.35 306.35 416.4 307.05 415.35 307.8 414.1 307.85 412.85 307.85 411.85 307.1 410.85 306.35 410.5 305.2 410.3 304.65 410.3 304 410.3 302.45 411.4 301.3 412.55 300.2 414.1 300.2 415.7 300.2 416.8 301.3 417.9 302.45 417.9 304 417.9 304.6 417.75 305.2 Z"/>
</g>

<g id="Layer0_0_MEMBER_1_MEMBER_19_MEMBER_2_FILL">
<path fill="#FFFFFF" stroke="none" d="
M 412.1 302
Q 411.25 302.85 411.25 304 411.25 305.2 412.1 306.05 412.9 306.9 414.1 306.9 415.3 306.9 416.15 306.05 417 305.2 417 304 417 302.85 416.15 302 415.3 301.15 414.1 301.15 412.9 301.15 412.1 302 Z"/>
</g>

<g id="Layer0_0_MEMBER_1_MEMBER_19_MEMBER_3_FILL">
<path fill="#DAD1D1" stroke="none" d="
M 412.85 302.8
Q 412.35 303.3 412.35 304 412.35 304.75 412.85 305.25 413.4 305.75 414.1 305.75 414.8 305.75 415.35 305.25 415.85 304.75 415.85 304 415.85 303.3 415.35 302.8 414.8 302.3 414.1 302.3 413.4 302.3 412.85 302.8 Z"/>
</g>

<g id="Layer0_0_MEMBER_1_MEMBER_19_MEMBER_4_FILL">
<path fill="#FFFFFF" fill-opacity="0.4980392156862745" stroke="none" d="
M 2.95 1.3
Q 2.4 0.45 1.5 0
L 0 3.1 2.95 1.3 Z"/>
</g>

<g id="Layer0_0_MEMBER_1_MEMBER_19_MEMBER_5_FILL">
<path fill="#FFFFFF" fill-opacity="0.4980392156862745" stroke="none" d="
M 1.5 3.15
L 3 0 0 1.8
Q 0.6 2.75 1.5 3.15 Z"/>
</g>

<g id="Layer0_0_MEMBER_1_MEMBER_20_MEMBER_0_FILL">
<path fill="#DAD1D1" stroke="none" d="
M 355.5 301.25
Q 354.35 302.4 354.35 304 354.35 305.65 355.5 306.8 356.65 307.95 358.3 307.95 359.9 307.95 361.1 306.8 362.25 305.65 362.25 304 362.25 302.4 361.1 301.25 359.9 300.1 358.3 300.1 356.65 300.1 355.5 301.25 Z"/>
</g>

<g id="Layer0_0_MEMBER_1_MEMBER_20_MEMBER_1_FILL">
<path fill="#1D1715" stroke="none" d="
M 362.7 299.7
Q 361.75 299.2 360.6 299.2
L 356.25 299.2
Q 354.8 299.2 353.6 299.95 352.1 301.7 352.1 304.05
L 352.2 305.2
Q 352.6 307.35 354.3 308.75 356.05 310.2 358.3 310.2 360.55 310.2 362.25 308.75 363.95 307.35 364.35 305.2 364.45 304.8 364.45 304 364.45 301.45 362.7 299.7
M 355.6 301.3
Q 356.75 300.2 358.3 300.2 359.9 300.2 361 301.3 362.1 302.45 362.1 304 362.1 304.65 361.9 305.2 361.5 306.35 360.55 307.05 359.55 307.8 358.3 307.85 357.05 307.85 356.05 307.1 355.05 306.35 354.65 305.2 354.5 304.6 354.5 304 354.5 302.45 355.6 301.3 Z"/>
</g>

<g id="Layer0_0_MEMBER_1_MEMBER_20_MEMBER_2_FILL">
<path fill="#FFFFFF" stroke="none" d="
M 356.25 302
Q 355.4 302.85 355.4 304 355.4 305.2 356.25 306.05 357.1 306.9 358.3 306.9 359.45 306.9 360.3 306.05 361.15 305.2 361.15 304 361.15 302.85 360.3 302 359.45 301.15 358.3 301.15 357.1 301.15 356.25 302 Z"/>
</g>

<g id="Layer0_0_MEMBER_1_MEMBER_20_MEMBER_3_FILL">
<path fill="#DAD1D1" stroke="none" d="
M 357.05 302.8
Q 356.55 303.3 356.55 304 356.55 304.75 357.05 305.25 357.6 305.75 358.3 305.75 359 305.75 359.5 305.25 360 304.75 360 304 360 303.3 359.5 302.8 359 302.3 358.3 302.3 357.6 302.3 357.05 302.8 Z"/>
</g>

<g id="Layer0_0_MEMBER_1_MEMBER_20_MEMBER_4_FILL">
<path fill="#FFFFFF" fill-opacity="0.4980392156862745" stroke="none" d="
M 2.95 1.3
Q 2.4 0.45 1.5 0
L 0 3.1 2.95 1.3 Z"/>
</g>

<g id="Layer0_0_MEMBER_1_MEMBER_20_MEMBER_5_FILL">
<path fill="#FFFFFF" fill-opacity="0.4980392156862745" stroke="none" d="
M 1.45 3.15
L 3 0 0 1.8
Q 0.6 2.7 1.45 3.15 Z"/>
</g>

<g id="Layer0_0_MEMBER_1_MEMBER_21_FILL">
<path fill="#61C3DA" stroke="none" d="
M 423.45 293.15
Q 422.85 293 421.4 292.95
L 404.3 291.55
Q 403.65 291.55 403.2 291.35
L 403.3 291.8
Q 403.45 292.5 404 292.9 404.55 293.35 405.25 293.35
L 424.9 294.2
Q 424.45 293.4 423.45 293.15 Z"/>
</g>

<g id="Layer0_0_MEMBER_1_MEMBER_22_MEMBER_0_FILL">
<path fill="#FFFFFF" fill-opacity="0.4980392156862745" stroke="none" d="
M 8.4 5.65
L 3.75 0 0 0 4.7 5.65 8.4 5.65 Z"/>
</g>

<g id="Layer0_0_MEMBER_1_MEMBER_22_MEMBER_1_FILL">
<path fill="#FFFFFF" fill-opacity="0.4980392156862745" stroke="none" d="
M 10.05 5.65
L 5.4 0 4.2 0 8.85 5.65 10.05 5.65 Z"/>
</g>

<g id="Layer0_0_MEMBER_1_MEMBER_22_MEMBER_2_FILL">
<path fill="#FFFFFF" fill-opacity="0.4980392156862745" stroke="none" d="
M 8.4 5.65
L 3.75 0 0 0 4.7 5.65 8.4 5.65 Z"/>
</g>

<g id="Layer0_0_MEMBER_1_MEMBER_22_MEMBER_3_FILL">
<path fill="#FFFFFF" fill-opacity="0.4980392156862745" stroke="none" d="
M 10.05 5.65
L 5.4 0 4.2 0 8.85 5.65 10.05 5.65 Z"/>
</g>
</defs>

<g transform="matrix( 9, 0, 0, 9, 132.4,616.65) ">
<use xlink:href="#Layer0_0_MEMBER_0_FILL"/>
</g>

<g transform="matrix( 9, 0, 0, 9, -2946.05,-2164.35) ">
<use xlink:href="#Layer0_0_MEMBER_1_MEMBER_0_FILL"/>
</g>

<g transform="matrix( 9, 0, 0, 9, -2946.05,-2164.35) ">
<use xlink:href="#Layer0_0_MEMBER_1_MEMBER_1_FILL"/>
</g>

<g transform="matrix( 9, 0, 0, 9, -2946.05,-2164.35) ">
<use xlink:href="#Layer0_0_MEMBER_1_MEMBER_2_FILL"/>
</g>

<g transform="matrix( 9, 0, 0, 9, -2946.05,-2164.35) ">
<use xlink:href="#Layer0_0_MEMBER_1_MEMBER_3_FILL"/>
</g>

<g transform="matrix( 9, 0, 0, 9, -2946.05,-2164.35) ">
<use xlink:href="#Layer0_0_MEMBER_1_MEMBER_4_FILL"/>
</g>

<g transform="matrix( 9, 0, 0, 9, -2946.05,-2164.35) ">
<use xlink:href="#Layer0_0_MEMBER_1_MEMBER_5_FILL"/>
</g>

<g transform="matrix( 9, 0, 0, 9, -2946.05,-2164.35) ">
<use xlink:href="#Layer0_0_MEMBER_1_MEMBER_6_MEMBER_0_FILL"/>
</g>

<g transform="matrix( 9, 0, 0, 9, -2946.05,-2164.35) ">
<use xlink:href="#Layer0_0_MEMBER_1_MEMBER_6_MEMBER_1_FILL"/>
</g>

<g transform="matrix( 9, 0, 0, 9, -2946.05,-2164.35) ">
<use xlink:href="#Layer0_0_MEMBER_1_MEMBER_7_FILL"/>
</g>

<g transform="matrix( 9, 0, 0, 9, -2946.05,-2164.35) ">
<use xlink:href="#Layer0_0_MEMBER_1_MEMBER_8_MEMBER_0_FILL"/>
</g>

<g transform="matrix( 9, 0, 0, 9, -2946.05,-2164.35) ">
<use xlink:href="#Layer0_0_MEMBER_1_MEMBER_8_MEMBER_1_FILL"/>
</g>

<g transform="matrix( 9, 0, 0, 9, -2946.05,-2164.35) ">
<use xlink:href="#Layer0_0_MEMBER_1_MEMBER_9_MEMBER_0_FILL"/>
</g>

<g transform="matrix( 9, 0, 0, 9, -2946.05,-2164.35) ">
<use xlink:href="#Layer0_0_MEMBER_1_MEMBER_9_MEMBER_1_FILL"/>
</g>

<g transform="matrix( 9, 0, 0, 9, -2946.05,-2164.35) ">
<use xlink:href="#Layer0_0_MEMBER_1_MEMBER_10_FILL"/>
</g>

<g transform="matrix( 9, 0, 0, 9, -2946.05,-2164.35) ">
<use xlink:href="#Layer0_0_MEMBER_1_MEMBER_11_FILL"/>
</g>

<g transform="matrix( 9, 0, 0, 9, -2946.05,-2164.35) ">
<use xlink:href="#Layer0_0_MEMBER_1_MEMBER_12_FILL"/>
</g>

<g transform="matrix( 9, 0, 0, 9, -2946.05,-2164.35) ">
<use xlink:href="#Layer0_0_MEMBER_1_MEMBER_13_FILL"/>
</g>

<g transform="matrix( 9, 0, 0, 9, -2946.05,-2164.35) ">
<use xlink:href="#Layer0_0_MEMBER_1_MEMBER_14_FILL"/>
</g>

<g transform="matrix( 9, 0, 0, 9, -2946.05,-2164.35) ">
<use xlink:href="#Layer0_0_MEMBER_1_MEMBER_15_FILL"/>
</g>

<g transform="matrix( 9, 0, 0, 9, -2946.05,-2164.35) ">
<use xlink:href="#Layer0_0_MEMBER_1_MEMBER_16_FILL"/>
</g>

<g transform="matrix( 9, 0, 0, 9, -2946.05,-2164.35) ">
<use xlink:href="#Layer0_0_MEMBER_1_MEMBER_17_FILL"/>
</g>

<g transform="matrix( 9, 0, 0, 9, 122.05,503.25) ">
<use xlink:href="#Layer0_0_MEMBER_1_MEMBER_18_FILL"/>
</g>

<g transform="matrix( 9, 0, 0, 9, -2946.05,-2164.35) ">
<use xlink:href="#Layer0_0_MEMBER_1_MEMBER_19_MEMBER_0_FILL"/>
</g>

<g transform="matrix( 9, 0, 0, 9, -2946.05,-2164.35) ">
<use xlink:href="#Layer0_0_MEMBER_1_MEMBER_19_MEMBER_1_FILL"/>
</g>

<g transform="matrix( 9, 0, 0, 9, -2946.05,-2164.35) ">
<use xlink:href="#Layer0_0_MEMBER_1_MEMBER_19_MEMBER_2_FILL"/>
</g>

<g transform="matrix( 9, 0, 0, 9, -2946.05,-2164.35) ">
<use xlink:href="#Layer0_0_MEMBER_1_MEMBER_19_MEMBER_3_FILL"/>
</g>

<g transform="matrix( 9, 0, 0, 9, 780.85,543.75) ">
<use xlink:href="#Layer0_0_MEMBER_1_MEMBER_19_MEMBER_4_FILL"/>
</g>

<g transform="matrix( 9, 0, 0, 9, 753.85,571.65) ">
<use xlink:href="#Layer0_0_MEMBER_1_MEMBER_19_MEMBER_5_FILL"/>
</g>

<g transform="matrix( 9, 0, 0, 9, -2946.05,-2164.35) ">
<use xlink:href="#Layer0_0_MEMBER_1_MEMBER_20_MEMBER_0_FILL"/>
</g>

<g transform="matrix( 9, 0, 0, 9, -2946.05,-2164.35) ">
<use xlink:href="#Layer0_0_MEMBER_1_MEMBER_20_MEMBER_1_FILL"/>
</g>

<g transform="matrix( 9, 0, 0, 9, -2946.05,-2164.35) ">
<use xlink:href="#Layer0_0_MEMBER_1_MEMBER_20_MEMBER_2_FILL"/>
</g>

<g transform="matrix( 9, 0, 0, 9, -2946.05,-2164.35) ">
<use xlink:href="#Layer0_0_MEMBER_1_MEMBER_20_MEMBER_3_FILL"/>
</g>

<g transform="matrix( 9, 0, 0, 9, 278.65,543.75) ">
<use xlink:href="#Layer0_0_MEMBER_1_MEMBER_20_MEMBER_4_FILL"/>
</g>

<g transform="matrix( 9, 0, 0, 9, 251.65,571.65) ">
<use xlink:href="#Layer0_0_MEMBER_1_MEMBER_20_MEMBER_5_FILL"/>
</g>

<g transform="matrix( 9, 0, 0, 9, -2946.05,-2164.35) ">
<use xlink:href="#Layer0_0_MEMBER_1_MEMBER_21_FILL"/>
</g>

<g transform="matrix( 9, 0, 0, 9, 515.8,408.3) ">
<use xlink:href="#Layer0_0_MEMBER_1_MEMBER_22_MEMBER_0_FILL"/>
</g>

<g transform="matrix( 9, 0, 0, 9, 515.8,408.3) ">
<use xlink:href="#Layer0_0_MEMBER_1_MEMBER_22_MEMBER_1_FILL"/>
</g>

<g transform="matrix( 9, 0, 0, 9, 370,408.3) ">
<use xlink:href="#Layer0_0_MEMBER_1_MEMBER_22_MEMBER_2_FILL"/>
</g>

<g transform="matrix( 9, 0, 0, 9, 370,408.3) ">
<use xlink:href="#Layer0_0_MEMBER_1_MEMBER_22_MEMBER_3_FILL"/>
</g>
</svg>
