
<svg xmlns="http://www.w3.org/2000/svg" version="1.1" xmlns:xlink="http://www.w3.org/1999/xlink" preserveAspectRatio="none" x="0px" y="0px" width="1024px" height="1024px" viewBox="0 0 1024 1024">
<defs>
<g id="Layer0_0_MEMBER_0_FILL">
<path fill="#1D1D1B" fill-opacity="0.09803921568627451" stroke="none" d="
M 41.1 2.65
Q 58.05 2.65 70.15 2.25 82.2 1.9 82.2 1.35 82.2 0.8 70.15 0.4 58.15 0 41.1 0 24.05 0 12.05 0.4 0 0.8 0 1.35 0 1.9 12.05 2.25 24.15 2.65 41.1 2.65 Z"/>
</g>

<g id="Layer0_0_MEMBER_1_MEMBER_0_FILL">
<path fill="#3E312C" stroke="none" d="
M 28.45 101.4
Q 28.55 100.85 28.25 100.4 27.95 99.9 27.4 99.8
L 25.3 99.4
Q 24.75 99.3 24.3 99.6 23.8 99.9 23.7 100.45
L 21.6 111.05
Q 21.5 111.6 21.8 112.1 22.1 112.6 22.65 112.7
L 24.75 113.1
Q 25.3 113.2 25.8 112.9 26.25 112.55 26.35 112
L 28.45 101.4 Z"/>
</g>

<g id="Layer0_0_MEMBER_1_MEMBER_1_FILL">
<path fill="#C44645" stroke="none" d="
M 34.15 92.2
Q 32.75 93 31.9 94.35 26.55 103.25 26.55 103.35
L 24.85 110.75 24.85 110.85 24.75 111.55
Q 24.75 112.3 24.85 112.65
L 24.65 114.75
Q 24.95 115.8 25.65 116.65 26.15 117.25 26.9 117.6
L 31.8 119.65 102.3 119.65 104.15 119.4
Q 105.8 119.25 106.3 117.6
L 107.2 113.1 107.15 112.6 107.05 112.15 107.05 112 105.25 107.5 104.95 106.9 104.75 106.6 104.2 106 103.9 105.8 103.8 105.7 103.1 105.35 83.7 100.55 82.7 100 74.5 92.95
Q 73.7 92.2 72.85 91.9 72.2 91.65 70.7 91.4 54.5 90.15 37.15 91.4 35.55 91.4 34.15 92.2 Z"/>
</g>

<g id="Layer0_0_MEMBER_1_MEMBER_2_FILL">
<path fill="#E75C5B" stroke="none" d="
M 73.8 93.8
L 73.75 93.8
Q 73.1 93.15 72.5 92.95 71.95 92.75 70.55 92.55 66.95 92.2 61.8 92.05 61.45 92.05 61.2 92.3 60.95 92.55 60.95 92.9
L 60.95 115.7
Q 60.95 116.25 61.3 116.6 61.7 116.95 62.25 116.95
L 80.65 116.95
Q 81.2 116.95 81.6 116.6 81.95 116.25 81.95 115.7
L 81.95 102.5
Q 81.95 100.75 80.65 99.7
L 73.8 93.8 Z"/>
</g>

<g id="Layer0_0_MEMBER_1_MEMBER_3_FILL">
<path fill="#ABEDE3" stroke="none" d="
M 62.25 93
Q 61.85 93 61.85 93.4
L 61.85 101.05
Q 61.85 101.6 62.4 101.6
L 80.35 102
Q 80.6 102.05 80.75 101.8 80.9 101.6 80.8 101.35 80.55 100.8 80.1 100.4
L 73.2 94.5 73.15 94.45
Q 72.65 93.95 72.2 93.8 71.75 93.65 70.45 93.45 66.65 93.15 62.25 93 Z"/>
</g>

<g id="Layer0_0_MEMBER_1_MEMBER_4_FILL">
<path fill="#3E312C" stroke="none" d="
M 103 107.25
Q 102.65 107.85 102.9 108.6
L 103.95 111.15
Q 104.25 111.9 105.4 112.15
L 105.9 112.2 106.85 112.2 107.05 112.15 107.05 112 105.25 107.5 104.95 106.9 104.75 106.6 104.5 106.6
Q 103.5 106.6 103 107.25 Z"/>
</g>

<g id="Layer0_0_MEMBER_1_MEMBER_5_FILL">
<path fill="#F9B659" stroke="none" d="
M 103.35 107.4
Q 103 107.85 103.25 108.45
L 103.25 108.5 104.3 111
Q 104.55 111.6 105.45 111.8
L 105.9 111.85 106.85 111.85
Q 107.45 111.85 106.75 109.95 106.75 109.9 105.7 107.45 105.45 106.9 104.85 106.9
L 104.5 106.9
Q 103.7 106.9 103.35 107.4 Z"/>
</g>

<g id="Layer0_0_MEMBER_1_MEMBER_6_FILL">
<path fill="#3E312C" stroke="none" d="
M 26.9 117.6
L 31.8 119.65 102.3 119.65 104.15 119.4
Q 105.8 119.25 106.3 117.6
L 26.9 117.6 Z"/>
</g>

<g id="Layer0_0_MEMBER_1_MEMBER_7_FILL">
<path fill="#3E312C" stroke="none" d="
M 101.65 115.75
L 100.5 119.65 102.3 119.65 104.15 119.4
Q 105.8 119.25 106.3 117.6
L 107.2 113.1 105.15 113.1
Q 103.9 113.1 102.95 113.85 102 114.6 101.65 115.75 Z"/>
</g>

<g id="Layer0_0_MEMBER_1_MEMBER_8_FILL">
<path fill="#3E312C" stroke="none" d="
M 24.75 111.55
L 24.6 114.3
Q 24.65 115.4 24.75 115.75 24.9 116.3 25.5 116.8 26.45 117.7 31.8 119.65
L 31.2 114.6
Q 30.85 113.25 29.75 112.4 28.65 111.55 27.25 111.55
L 24.75 111.55 Z"/>
</g>

<g id="Layer0_0_MEMBER_1_MEMBER_9_FILL">
<path fill="#F9B659" stroke="none" d="
M 105.3 114.5
Q 104.75 114.5 104.55 115.45 104.5 115.8 104.6 116.1 104.7 116.4 104.95 116.4 105.5 116.4 105.7 115.45 105.9 114.5 105.3 114.5 Z"/>
</g>

<g id="Layer0_0_MEMBER_1_MEMBER_10_FILL">
<path fill="#F9B659" stroke="none" d="
M 26.65 114.05
Q 26.45 112.7 25.9 112.7 25.65 112.65 25.55 113.05 25.45 113.45 25.5 114 25.55 114.55 25.75 114.95 25.95 115.35 26.2 115.35 26.75 115.35 26.65 114.05 Z"/>
</g>

<g id="Layer0_0_MEMBER_1_MEMBER_11_FILL">
<path fill="#3E312C" stroke="none" d="
M 26.4 103.9
L 24.85 110.75 25.15 110.75
Q 25.85 110.75 26 110.05
L 27.25 104.95
Q 27.35 104.55 27.05 104.2 26.85 103.9 26.4 103.9 Z"/>
</g>

<g id="Layer0_0_MEMBER_1_MEMBER_12_FILL">
<path fill="#F9B659" stroke="none" d="
M 24.6 107.95
L 24.2 109.6
Q 24.15 109.9 24.3 110.15 24.5 110.4 24.8 110.4
L 25.15 110.4
Q 25.55 110.4 25.65 110
L 26.1 108.25 24.6 107.95 Z"/>
</g>

<g id="Layer0_0_MEMBER_1_MEMBER_13_FILL">
<path fill="#C44645" stroke="none" d="
M 25.4 104.7
L 24.6 107.95 26.1 108.25 26.9 104.9
Q 27 104.65 26.8 104.4 26.65 104.2 26.4 104.2
L 26 104.2
Q 25.5 104.2 25.4 104.7 Z"/>
</g>

<g id="Layer0_0_MEMBER_1_MEMBER_14_FILL">
<path fill="#C44645" stroke="none" d="
M 78.5 102.8
L 78.85 102.8
Q 79.95 102.75 80.3 102.6 81.05 102.3 81 101.5 80.95 100.6 80.6 99.6 80.15 98.55 79.6 98.25
L 78.5 102.8 Z"/>
</g>

<g id="Layer0_0_MEMBER_1_MEMBER_15_MEMBER_0_FILL">
<path fill="#FFFFFF" fill-opacity="0.4980392156862745" stroke="none" d="
M 0 0
L 6 7.85 11.35 8 5.5 0.25
Q 2.1 0.05 0 0 Z"/>
</g>

<g id="Layer0_0_MEMBER_1_MEMBER_15_MEMBER_1_FILL">
<path fill="#FFFFFF" fill-opacity="0.4980392156862745" stroke="none" d="
M 6.2 0.3
L 12 8 13.75 8.05 8 0.45 7.8 0.4
Q 7.3 0.4 6.2 0.3 Z"/>
</g>

<g id="Layer0_0_MEMBER_1_MEMBER_16_FILL">
<path fill="#3E312C" stroke="none" d="
M 83.4 116.35
L 83.15 119.65 100.05 119.65 99.75 116.25
Q 99.55 114.15 98 112.75 96.4 111.3 94.3 111.3
L 88.85 111.3
Q 86.7 111.3 85.15 112.75 83.55 114.2 83.4 116.35 Z"/>
</g>

<g id="Layer0_0_MEMBER_1_MEMBER_17_FILL">
<path fill="#E75C5B" stroke="none" d="
M 468.75 360.4
Q 468.75 356.4 465.75 353.4 463.25 350.4 459.25 350.4
L 409.25 349.9
Q 346.75 349.9 336.75 350.4 317.25 351.4 293.75 403.9 282.25 430.4 274.75 456.4
L 274.75 505.4
Q 274.75 515.4 281.75 522.9 289.25 529.9 299.25 529.9
L 310.25 529.9
Q 336.75 529.9 356.25 547.9 375.75 565.4 378.25 591.9
L 378.25 592.4
Q 379.25 599.9 386.75 599.9
L 459.25 599.9
Q 468.75 599.9 468.75 590.9
L 468.75 360.4 Z"/>
</g>

<g id="Layer0_0_MEMBER_1_MEMBER_18_MEMBER_0_FILL">
<path fill="#ABEDE3" stroke="none" d="
M 35.45 93.1
Q 34.2 93.5 33.25 94.95 32.8 95.65 30.15 100.15 30 100.4 30.15 100.65 30.3 100.9 30.6 100.9
L 37.15 101.05
Q 37.45 101.15 37.65 100.75 40.2 95.4 41.15 93.35 41.25 93.1 41.1 92.85 40.95 92.6 40.65 92.6 36.9 92.6 35.45 93.1 Z"/>
</g>

<g id="Layer0_0_MEMBER_1_MEMBER_19_FILL">
<path fill="#ABEDE3" stroke="none" d="
M 46.85 92.9
Q 46.7 92.9 46.3 93.1 44.45 94.35 42.25 100.5 42.1 101.1 42.7 101.2
L 58.65 101.55
Q 59.15 101.55 59.15 101.05
L 59.15 93.45
Q 59.15 92.9 58.6 92.9
L 46.85 92.9 Z"/>
</g>

<g id="Layer0_0_MEMBER_1_MEMBER_20_FILL">
<path fill="#3E312C" stroke="none" d="
M 47.9 112.75
Q 46.35 111.3 44.2 111.3
L 38.8 111.3
Q 36.65 111.3 35.1 112.75 33.5 114.2 33.3 116.35
L 33.05 119.65 50 119.65 49.65 116.25
Q 49.45 114.15 47.9 112.75 Z"/>
</g>

<g id="Layer0_0_MEMBER_1_MEMBER_21_FILL">
<path fill="#FFFFFF" stroke="none" d="
M 62.1 103.7
Q 62.1 103.95 62.35 103.95
L 65.45 104.05
Q 65.7 104.05 65.7 103.8
L 65.7 103.2
Q 65.7 102.95 65.45 102.95
L 62.35 102.9
Q 62.1 102.9 62.1 103.1
L 62.1 103.7 Z"/>
</g>

<g id="Layer0_0_MEMBER_1_MEMBER_22_FILL">
<path fill="#FFFFFF" stroke="none" d="
M 42.65 103.25
Q 42.65 103.5 42.85 103.5
L 45.95 103.6
Q 46.2 103.6 46.2 103.35
L 46.2 102.75
Q 46.2 102.5 45.95 102.5
L 42.9 102.4
Q 42.65 102.4 42.65 102.65
L 42.65 103.25 Z"/>
</g>

<g id="Layer0_0_MEMBER_1_MEMBER_23_MEMBER_0_MEMBER_0_MEMBER_0_FILL">
<path fill="#1D1715" stroke="none" d="
M 15.35 5.15
L 15.35 5.1 15.1 4.4 15.05 4.45 14.95 4.6 14.5 4.8 14.35 4.45 14.7 4.3 14.85 4 14.85 3.95 14.9 3.95 14.5 3.25 14.5 3.35 14.45 3.4 14.4 3.55 14 3.75 13.8 3.45 14.05 3.25 14.2 2.95 14.2 2.85 13.75 2.3 13.7 2.35 13.65 2.55 13.3 2.85 13.05 2.6 13.3 2.35 13.35 2 13.4 1.95 12.8 1.45 12.8 1.7 12.5 2.1 12.2 1.85 12.4 1.6 12.4 1.15 11.75 0.8 11.75 1.05 11.55 1.45 11.2 1.3 11.35 1 11.3 0.85 11.3 0.6 11.25 0.55 10.55 0.3 10.6 0.4 10.65 0.55 10.5 1 10.15 0.9 10.2 0.6 10.1 0.25 10.1 0.2 10.05 0.2
Q 10 0.2 9.35 0.05
L 9.35 0.15 9.45 0.3 9.4 0.75 9 0.7 9.05 0.4 8.85 0.1 8.85 0.05 8.8 0 8.05 0 8.1 0.1 8.25 0.25 8.25 0.7 7.85 0.75 7.85 0.4 7.6 0.15 7.6 0.1 7.55 0.05 6.8 0.2 6.9 0.25 7 0.4 7.1 0.85 6.75 0.95 6.65 0.6 6.55 0.5 6.4 0.4 6.4 0.35 6.35 0.3 5.65 0.6 5.7 0.65 5.85 0.75 6.05 1.15 5.7 1.3 5.55 1 5.25 0.85 5.2 0.8 5.15 0.8 4.5 1.15 4.6 1.2 4.65 1.25 4.75 1.3 5 1.7 4.7 1.9 4.5 1.6 4.2 1.5 4.15 1.5 4.1 1.45 3.55 1.95 3.6 1.95 3.8 2 4.1 2.35 3.85 2.65 3.6 2.4 3.25 2.35 3.2 2.3 3.15 2.3 2.7 2.9 2.95 2.9 3.35 3.2 3.1 3.5 2.8 3.3 2.4 3.3 2 3.95 2.3 3.95 2.7 4.15 2.55 4.5 2.2 4.35 2.1 4.35 1.9 4.4 1.8 4.4 1.55 5.15 1.65 5.1 1.8 5.05 2.25 5.2 2.15 5.55 1.8 5.5 1.5 5.6 1.4 5.6 1.3 6.35 1.35 6.3 1.55 6.25 2 6.3 1.95 6.7 1.6 6.65 1.35 6.8 1.3 6.85 1.25 6.85 1.25 7.6 1.35 7.55 1.5 7.45 1.95 7.45 1.95 7.85 1.6 7.85 1.35 8.05 1.35 8.1 1.3 8.15 1.4 8.75 1.45 8.85 1.65 8.65 2.1 8.55 2.15 8.95 1.9 9 1.85 9.05 1.75 9.1 1.6 9.3 1.55 9.35 1.85 10.05 1.85 10 2 9.85 2.4 9.65 2.55 10 2.25 10.15 2.1 10.45 2.05 10.5 2.4 11.15 2.45 11.1 2.45 11.05 2.55 10.9 2.95 10.65 3.15 11 2.85 11.2 2.75 11.5 2.75 11.55 2.7 11.6 3.2 12.15 3.2 12.05 3.25 11.9 3.6 11.6 3.9 11.85 3.65 12.1 3.55 12.45 3.55 12.5 4.15 13 4.15 12.7 4.45 12.35 4.75 12.6 4.55 12.85 4.55 13.3 5.2 13.65 5.2 13.4 5.4 13 5.75 13.15 5.6 13.45 5.6 13.6 5.65 13.8 5.65 13.9 6.35 14.15 6.35 14.05 6.3 13.85 6.45 13.45 6.8 13.55 6.7 13.85 6.85 14.2 6.85 14.25 7.6 14.4 7.55 14.3 7.5 14.15 7.55 13.7 7.95 13.75 7.9 14.05 8.05 14.35 8.1 14.4 8.1 14.45 8.85 14.45 8.8 14.35 8.7 14.2 8.7 13.75 9.05 13.7 9.1 14.05 9.3 14.3 9.35 14.35 9.35 14.4 10.1 14.25 9.9 14.05 9.8 13.6 10.2 13.5 10.3 13.85 10.35 13.95 10.55 14.05 10.55 14.1 10.6 14.15 11.3 13.85 11.25 13.8 11.1 13.7 10.9 13.3 11.25 13.1 11.4 13.45 11.7 13.6 11.7 13.65 11.75 13.65 12.4 13.25 12.35 13.25 12.3 13.2 12.15 13.15 11.9 12.75 12.25 12.55 12.45 12.85 12.75 12.95 12.8 12.95 12.85 13 13.4 12.5 13.3 12.45 13.15 12.4 12.8 12.1 13.1 11.8 13.35 12.05 13.7 12.1 13.75 12.15 14.25 11.55 13.95 11.55 13.6 11.25 13.85 10.95 14.1 11.15 14.55 11.15 14.9 10.5 14.65 10.5 14.2 10.3 14.4 9.95 14.7 10.1 14.85 10.1 15.05 10.05 15.1 10.05 15.4 9.3 15.3 9.35 15.1 9.4 14.65 9.25 14.8 8.9 15.1 8.95 15.45 8.85 15.5 8.85 15.65 8.1 15.55 8.15 15.4 8.2 14.95 8.15 14.95 7.75 15.3 7.8 15.6 7.6 15.7 7.6 15.7 6.85 15.6 6.9 15.45 7 15 7 14.95 6.6 15.3 6.6 15.55 6.4 15.65 6.3 15.5 5.6 15.3 5.8 14.85 5.9 14.75 5.5 15.1 5.4 15.2 5.3 15.3 5.15 15.35 5.15 Z"/>
</g>

<g id="Layer0_0_MEMBER_1_MEMBER_23_MEMBER_0_MEMBER_0_MEMBER_1_FILL">
<path fill="#403430" stroke="none" d="
M 13.8 3.45
L 14 3.75 14.4 3.55 14.45 3.4 14.5 3.35 14.2 2.95 14.05 3.25 13.8 3.45 Z"/>
</g>

<g id="Layer0_0_MEMBER_1_MEMBER_23_MEMBER_0_MEMBER_0_MEMBER_2_FILL">
<path fill="#403430" stroke="none" d="
M 4.5 3.1
Q 2.8 4.75 2.75 7.1 2.7 9.45 4.3 11.15 5.95 12.9 8.35 12.95 10.7 13 12.4 11.35 14.15 9.7 14.2 7.35 14.25 5 12.6 3.3 10.95 1.6 8.6 1.5 6.25 1.45 4.5 3.1 Z"/>
</g>

<g id="Layer0_0_MEMBER_1_MEMBER_23_MEMBER_0_MEMBER_0_MEMBER_3_FILL">
<path fill="#403430" stroke="none" d="
M 12.8 12.1
L 13.15 12.4 13.3 12.45 13.7 12.1 13.35 12.05 13.1 11.8 12.8 12.1 Z"/>
</g>

<g id="Layer0_0_MEMBER_1_MEMBER_23_MEMBER_0_MEMBER_0_MEMBER_4_FILL">
<path fill="#403430" stroke="none" d="
M 13.6 11.25
L 13.95 11.55 14.15 11.55 14.45 11.15 14.1 11.15 13.85 10.95 13.6 11.25 Z"/>
</g>

<g id="Layer0_0_MEMBER_1_MEMBER_23_MEMBER_0_MEMBER_0_MEMBER_5_FILL">
<path fill="#403430" stroke="none" d="
M 11.25 13.1
L 10.9 13.3 11.1 13.7 11.25 13.8 11.7 13.6 11.4 13.45 11.25 13.1 Z"/>
</g>

<g id="Layer0_0_MEMBER_1_MEMBER_23_MEMBER_0_MEMBER_0_MEMBER_6_FILL">
<path fill="#403430" stroke="none" d="
M 11.9 12.75
L 12.15 13.15 12.3 13.2 12.35 13.25 12.75 12.95 12.45 12.85 12.25 12.55 11.9 12.75 Z"/>
</g>

<g id="Layer0_0_MEMBER_1_MEMBER_23_MEMBER_0_MEMBER_0_MEMBER_7_FILL">
<path fill="#403430" stroke="none" d="
M 14.2 10.3
L 14.65 10.5 14.85 10.5 15.05 10.05 14.85 10.1 14.7 10.1 14.4 9.95 14.2 10.3 Z"/>
</g>

<g id="Layer0_0_MEMBER_1_MEMBER_23_MEMBER_0_MEMBER_0_MEMBER_8_FILL">
<path fill="#403430" stroke="none" d="
M 14.95 6.6
L 15 7 15.45 7 15.6 6.9 15.55 6.4 15.3 6.6 14.95 6.6 Z"/>
</g>

<g id="Layer0_0_MEMBER_1_MEMBER_23_MEMBER_0_MEMBER_0_MEMBER_9_FILL">
<path fill="#403430" stroke="none" d="
M 10.2 13.5
L 9.8 13.6 9.9 14.05 10.05 14.2 10.55 14.05 10.35 13.95 10.3 13.85 10.2 13.5 Z"/>
</g>

<g id="Layer0_0_MEMBER_1_MEMBER_23_MEMBER_0_MEMBER_0_MEMBER_10_FILL">
<path fill="#403430" stroke="none" d="
M 14.65 9.25
L 15.1 9.4 15.3 9.35 15.45 8.85 15.1 8.95 14.8 8.9 14.65 9.25 Z"/>
</g>

<g id="Layer0_0_MEMBER_1_MEMBER_23_MEMBER_0_MEMBER_0_MEMBER_11_FILL">
<path fill="#403430" stroke="none" d="
M 14.75 5.5
L 14.85 5.9 15.3 5.8 15.45 5.65 15.3 5.15 15.2 5.3 15.1 5.4 14.75 5.5 Z"/>
</g>

<g id="Layer0_0_MEMBER_1_MEMBER_23_MEMBER_0_MEMBER_0_MEMBER_12_FILL">
<path fill="#403430" stroke="none" d="
M 14.35 4.45
L 14.5 4.8 14.95 4.6 15.05 4.45 14.85 4 14.7 4.3 14.35 4.45 Z"/>
</g>

<g id="Layer0_0_MEMBER_1_MEMBER_23_MEMBER_0_MEMBER_0_MEMBER_13_FILL">
<path fill="#403430" stroke="none" d="
M 14.95 8.15
L 15.4 8.2 15.55 8.15 15.6 7.6 15.3 7.8 14.95 7.75 14.95 8.15 Z"/>
</g>

<g id="Layer0_0_MEMBER_1_MEMBER_23_MEMBER_0_MEMBER_0_MEMBER_14_FILL">
<path fill="#403430" stroke="none" d="
M 2.95 10.65
L 2.55 10.9 2.45 11.05 2.45 11.1 2.75 11.5 2.85 11.2 3.15 11 2.95 10.65 Z"/>
</g>

<g id="Layer0_0_MEMBER_1_MEMBER_23_MEMBER_0_MEMBER_0_MEMBER_15_FILL">
<path fill="#403430" stroke="none" d="
M 2.55 10
L 2.4 9.65 2 9.85 1.85 10 2.1 10.45 2.25 10.15 2.55 10 Z"/>
</g>

<g id="Layer0_0_MEMBER_1_MEMBER_23_MEMBER_0_MEMBER_0_MEMBER_16_FILL">
<path fill="#403430" stroke="none" d="
M 9.05 13.7
L 8.7 13.75 8.7 14.2 8.8 14.35 9.3 14.3 9.1 14.05 9.05 13.7 Z"/>
</g>

<g id="Layer0_0_MEMBER_1_MEMBER_23_MEMBER_0_MEMBER_0_MEMBER_17_FILL">
<path fill="#403430" stroke="none" d="
M 3.9 11.85
L 3.6 11.6 3.25 11.9 3.2 12.1 3.55 12.45 3.65 12.1 3.9 11.85 Z"/>
</g>

<g id="Layer0_0_MEMBER_1_MEMBER_23_MEMBER_0_MEMBER_0_MEMBER_18_FILL">
<path fill="#403430" stroke="none" d="
M 1.95 7.45
L 1.5 7.45 1.35 7.55 1.35 8.05 1.65 7.85 1.95 7.85 1.95 7.45 Z"/>
</g>

<g id="Layer0_0_MEMBER_1_MEMBER_23_MEMBER_0_MEMBER_0_MEMBER_19_FILL">
<path fill="#403430" stroke="none" d="
M 2.15 8.95
L 2.1 8.55 1.65 8.65 1.5 8.8 1.6 9.3 1.75 9.1 1.85 9.05 2.15 8.95 Z"/>
</g>

<g id="Layer0_0_MEMBER_1_MEMBER_23_MEMBER_0_MEMBER_0_MEMBER_20_FILL">
<path fill="#403430" stroke="none" d="
M 6.8 13.55
L 6.45 13.45 6.3 13.85 6.35 14.05 6.85 14.2 6.7 13.85 6.8 13.55 Z"/>
</g>

<g id="Layer0_0_MEMBER_1_MEMBER_23_MEMBER_0_MEMBER_0_MEMBER_21_FILL">
<path fill="#403430" stroke="none" d="
M 7.95 13.75
L 7.55 13.7 7.5 14.15 7.55 14.3 8.05 14.35 7.9 14.05 7.95 13.75 Z"/>
</g>

<g id="Layer0_0_MEMBER_1_MEMBER_23_MEMBER_0_MEMBER_0_MEMBER_22_FILL">
<path fill="#403430" stroke="none" d="
M 5.75 13.15
L 5.4 13 5.2 13.4 5.2 13.6 5.65 13.8 5.6 13.6 5.6 13.45 5.75 13.15 Z"/>
</g>

<g id="Layer0_0_MEMBER_1_MEMBER_23_MEMBER_0_MEMBER_0_MEMBER_23_FILL">
<path fill="#403430" stroke="none" d="
M 4.75 12.6
L 4.45 12.35 4.15 12.7 4.15 12.9 4.55 13.2 4.55 12.85 4.75 12.6 Z"/>
</g>

<g id="Layer0_0_MEMBER_1_MEMBER_23_MEMBER_0_MEMBER_0_MEMBER_24_FILL">
<path fill="#403430" stroke="none" d="
M 4.2 1.5
L 4.5 1.6 4.7 1.9 5 1.7 4.75 1.3 4.65 1.25 4.6 1.2 4.2 1.5 Z"/>
</g>

<g id="Layer0_0_MEMBER_1_MEMBER_23_MEMBER_0_MEMBER_0_MEMBER_25_FILL">
<path fill="#403430" stroke="none" d="
M 9.05 0.4
L 9 0.7 9.4 0.75 9.45 0.3 9.35 0.15 8.85 0.1 9.05 0.4 Z"/>
</g>

<g id="Layer0_0_MEMBER_1_MEMBER_23_MEMBER_0_MEMBER_0_MEMBER_26_FILL">
<path fill="#403430" stroke="none" d="
M 11.2 1.3
L 11.55 1.45 11.75 1.05 11.75 0.85 11.3 0.65 11.3 0.85 11.35 1 11.2 1.3 Z"/>
</g>

<g id="Layer0_0_MEMBER_1_MEMBER_23_MEMBER_0_MEMBER_0_MEMBER_27_FILL">
<path fill="#403430" stroke="none" d="
M 10.2 0.6
L 10.15 0.9 10.5 1 10.65 0.55 10.6 0.4 10.1 0.25 10.2 0.6 Z"/>
</g>

<g id="Layer0_0_MEMBER_1_MEMBER_23_MEMBER_0_MEMBER_0_MEMBER_28_FILL">
<path fill="#403430" stroke="none" d="
M 6.4 0.4
L 6.55 0.5 6.65 0.6 6.75 0.95 7.1 0.85 7 0.4 6.9 0.25 6.4 0.4 Z"/>
</g>

<g id="Layer0_0_MEMBER_1_MEMBER_23_MEMBER_0_MEMBER_0_MEMBER_29_FILL">
<path fill="#403430" stroke="none" d="
M 3.1 3.5
L 3.35 3.2 2.95 2.9 2.8 2.9 2.5 3.3 2.8 3.3 3.1 3.5 Z"/>
</g>

<g id="Layer0_0_MEMBER_1_MEMBER_23_MEMBER_0_MEMBER_0_MEMBER_30_FILL">
<path fill="#403430" stroke="none" d="
M 2.15 5.55
L 2.25 5.2 1.8 5.05 1.65 5.1 1.5 5.6 1.8 5.5 2.15 5.55 Z"/>
</g>

<g id="Layer0_0_MEMBER_1_MEMBER_23_MEMBER_0_MEMBER_0_MEMBER_31_FILL">
<path fill="#403430" stroke="none" d="
M 7.6 0.15
L 7.85 0.4 7.85 0.75 8.25 0.7 8.25 0.25 8.1 0.1 7.6 0.15 Z"/>
</g>

<g id="Layer0_0_MEMBER_1_MEMBER_23_MEMBER_0_MEMBER_0_MEMBER_32_FILL">
<path fill="#403430" stroke="none" d="
M 5.25 0.85
L 5.55 1 5.7 1.3 6.05 1.15 5.85 0.75 5.7 0.65 5.25 0.85 Z"/>
</g>

<g id="Layer0_0_MEMBER_1_MEMBER_23_MEMBER_0_MEMBER_0_MEMBER_33_FILL">
<path fill="#403430" stroke="none" d="
M 2.55 4.5
L 2.7 4.15 2.3 3.95 2.1 3.95 1.9 4.4 2.1 4.35 2.2 4.35 2.55 4.5 Z"/>
</g>

<g id="Layer0_0_MEMBER_1_MEMBER_23_MEMBER_0_MEMBER_0_MEMBER_34_FILL">
<path fill="#403430" stroke="none" d="
M 1.95 6.7
L 2 6.3 1.55 6.25 1.35 6.3 1.35 6.8 1.6 6.65 1.95 6.7 Z"/>
</g>

<g id="Layer0_0_MEMBER_1_MEMBER_23_MEMBER_0_MEMBER_0_MEMBER_35_FILL">
<path fill="#403430" stroke="none" d="
M 12.2 1.85
L 12.5 2.1 12.8 1.7 12.8 1.55 12.4 1.25 12.4 1.6 12.2 1.85 Z"/>
</g>

<g id="Layer0_0_MEMBER_1_MEMBER_23_MEMBER_0_MEMBER_0_MEMBER_36_FILL">
<path fill="#403430" stroke="none" d="
M 3.85 2.65
L 4.1 2.35 3.8 2 3.6 1.95 3.25 2.35 3.6 2.4 3.85 2.65 Z"/>
</g>

<g id="Layer0_0_MEMBER_1_MEMBER_23_MEMBER_0_MEMBER_0_MEMBER_37_FILL">
<path fill="#403430" stroke="none" d="
M 13.05 2.6
L 13.3 2.85 13.65 2.55 13.7 2.35 13.35 2 13.3 2.35 13.05 2.6 Z"/>
</g>

<g id="Layer0_0_MEMBER_1_MEMBER_23_MEMBER_1_FILL">
<path fill="#FDFDFD" stroke="none" d="
M 3.1 7.2
Q 3.1 9.45 4.65 11.05 6.25 12.6 8.45 12.6 10.7 12.6 12.3 11.05 13.85 9.45 13.85 7.2 13.85 5 12.3 3.4 10.7 1.85 8.45 1.85 6.25 1.85 4.65 3.4 3.1 5 3.1 7.2 Z"/>
</g>

<g id="Layer0_0_MEMBER_1_MEMBER_23_MEMBER_2_FILL">
<path fill="#403430" stroke="none" d="
M 4 7.2
Q 4 9.05 5.3 10.35 6.6 11.65 8.45 11.65 10.3 11.65 11.6 10.35 12.9 9.05 12.9 7.2 12.9 5.35 11.6 4.1 10.3 2.8 8.45 2.8 6.6 2.8 5.3 4.1 4 5.35 4 7.2 Z"/>
</g>

<g id="Layer0_0_MEMBER_1_MEMBER_23_MEMBER_3_MEMBER_0_MEMBER_0_MEMBER_0_FILL">
<path fill="#DAD1D1" stroke="none" d="
M 8.25 7.95
L 8.7 6.45 4.1 5.25 3.8 6.2 8.25 7.95 Z"/>
</g>

<g id="Layer0_0_MEMBER_1_MEMBER_23_MEMBER_3_MEMBER_0_MEMBER_1_MEMBER_0_FILL">
<path fill="#DAD1D1" stroke="none" d="
M 9.1 7.65
L 7.85 6.75 5.25 10.75 6.1 11.35 9.1 7.65 Z"/>
</g>

<g id="Layer0_0_MEMBER_1_MEMBER_23_MEMBER_3_MEMBER_0_MEMBER_2_MEMBER_0_FILL">
<path fill="#DAD1D1" stroke="none" d="
M 9.1 6.75
L 7.85 7.65 10.85 11.35 11.7 10.75 9.1 6.75 Z"/>
</g>

<g id="Layer0_0_MEMBER_1_MEMBER_23_MEMBER_3_MEMBER_0_MEMBER_3_MEMBER_0_FILL">
<path fill="#DAD1D1" stroke="none" d="
M 8.25 6.45
L 8.7 7.95 13.15 6.2 12.85 5.25 8.25 6.45 Z"/>
</g>

<g id="Layer0_0_MEMBER_1_MEMBER_23_MEMBER_3_MEMBER_0_MEMBER_4_MEMBER_0_FILL">
<path fill="#DAD1D1" stroke="none" d="
M 7.7 7.2
L 9.25 7.2 8.95 2.45 7.95 2.45 7.7 7.2 Z"/>
</g>

<g id="Layer0_0_MEMBER_1_MEMBER_23_MEMBER_3_MEMBER_1_FILL">
<path fill="#FDFDFD" stroke="none" d="
M 6.85 7.2
Q 6.85 7.9 7.3 8.35 7.8 8.85 8.45 8.85 9.15 8.85 9.6 8.35 10.1 7.9 10.1 7.2 10.1 6.55 9.6 6.05 9.15 5.6 8.45 5.6 7.8 5.6 7.3 6.05 6.85 6.55 6.85 7.2 Z"/>
</g>

<g id="Layer0_0_MEMBER_1_MEMBER_24_FILL">
<path fill="#C44645" stroke="none" d="
M 840 551.6
L 840 510 730 510 730 550.25
Q 741.954296875 543.4 756.75 543.4
L 811.25 543.4
Q 827.0380859375 543.4 840 551.6 Z"/>
</g>

<g id="Layer0_0_MEMBER_1_MEMBER_25_MEMBER_0_MEMBER_0_MEMBER_0_FILL">
<path fill="#1D1715" stroke="none" d="
M 15.45 5.65
L 15.35 5.8 14.85 5.9 14.8 5.5 15.1 5.4 15.4 5.1 15.15 4.4 15.1 4.45 15 4.6 14.55 4.8 14.4 4.45 14.7 4.3 14.85 4 14.9 3.95 14.55 3.25 14.5 3.35 14.5 3.4 14.4 3.55 14.05 3.75 13.8 3.45 14.1 3.25 14.2 2.95 14.25 2.9 14.25 2.85 13.75 2.3 13.75 2.35 13.7 2.55 13.35 2.85 13.1 2.6 13.3 2.35 13.4 2 13.4 1.95 12.8 1.45 12.8 1.7 12.5 2.1 12.2 1.85 12.4 1.6 12.4 1.15 11.75 0.8 11.75 0.85 11.8 1.05 11.55 1.45 11.2 1.3 11.35 1 11.35 0.85 11.3 0.65 11.3 0.55 10.6 0.3 10.6 0.4 10.65 0.55 10.5 1 10.15 0.9 10.25 0.6 10.15 0.25 10.1 0.2 9.35 0.05 9.4 0.15 9.45 0.3 9.4 0.75 9.05 0.7 9.05 0.4 8.9 0.1 8.85 0.05 8.85 0 8.1 0 8.15 0.1 8.25 0.25 8.25 0.7 7.9 0.75 7.85 0.4 7.65 0.15 7.6 0.1 7.6 0.05 6.85 0.2 7.05 0.4 7.15 0.85 6.75 0.95 6.65 0.6 6.6 0.5 6.4 0.4 6.4 0.35 6.35 0.3 5.65 0.6 5.7 0.65 5.9 0.75 6.05 1.15 5.7 1.3 5.55 1 5.25 0.85 5.25 0.8 5.2 0.8 4.55 1.15 4.65 1.25 4.8 1.3 5.05 1.7 4.7 1.9 4.5 1.6 4.2 1.5 4.15 1.5 4.15 1.45 3.6 1.9 3.55 1.95 3.65 1.95 3.8 2 4.15 2.35 3.85 2.65 3.6 2.4 3.3 2.35 3.25 2.3 3.2 2.3 2.7 2.9 3 2.9 3.35 3.2 3.1 3.5 2.85 3.3 2.4 3.3 2.05 3.95 2.3 3.95 2.75 4.15 2.55 4.5 2.25 4.35 2.15 4.35 1.9 4.4 1.85 4.4 1.55 5.15 1.65 5.1 1.85 5.05 2.3 5.2 2.2 5.55 1.85 5.5 1.55 5.6 1.45 5.6 1.3 6.35 1.4 6.3 1.55 6.25 2.05 6.3 2 6.7 1.65 6.65 1.35 6.8 1.3 6.85 1.25 7.05 1.3 7.6 1.35 7.55 1.5 7.45 1.95 7.45 2 7.85 1.65 7.85 1.4 8.05 1.3 8.15 1.45 8.75 1.45 8.85 1.65 8.65 2.1 8.55 2.2 8.95 1.9 9 1.8 9.1 1.65 9.3 1.6 9.3 1.6 9.35 1.85 10.05 1.9 10 2 9.85 2.45 9.65 2.6 10 2.3 10.15 2.1 10.45 2.1 10.5 2.05 10.5 2.45 11.15 2.45 11.1 2.5 11.05 2.55 10.9 2.95 10.65 3.15 11 2.9 11.2 2.75 11.5 2.75 11.6 3.2 12.15 3.25 12.05 3.3 11.9 3.65 11.6 3.9 11.85 3.65 12.1 3.6 12.45 3.6 12.5 4.15 13 4.15 12.9 4.2 12.7 4.45 12.35 4.75 12.6 4.6 12.85 4.55 13.2 4.55 13.3 5.25 13.65 5.2 13.6 5.2 13.4 5.4 13 5.75 13.15 5.6 13.45 5.65 13.6 5.65 13.8 5.7 13.85 5.7 13.9 6.4 14.15 6.35 14.05 6.3 13.85 6.45 13.45 6.85 13.55 6.75 13.85 6.85 14.2 6.9 14.25 7.65 14.4 7.6 14.3 7.5 14.15 7.55 13.7 7.95 13.75 7.9 14.05 8.1 14.35 8.1 14.4 8.15 14.45 8.9 14.45 8.85 14.35 8.7 14.2 8.7 13.75 9.1 13.7 9.1 14.05 9.35 14.3 9.35 14.35 9.4 14.4 10.15 14.25 10.05 14.2 9.95 14.05 9.85 13.6 10.2 13.5 10.3 13.85 10.4 13.95 10.55 14.05 10.6 14.1 10.6 14.15 11.35 13.85 11.25 13.8 11.1 13.7 10.9 13.3 11.3 13.1 11.4 13.45 11.7 13.6 11.75 13.65 11.8 13.65 12.45 13.25 12.35 13.25 12.3 13.2 12.2 13.15 11.95 12.75 12.25 12.55 12.45 12.85 12.75 12.95 12.8 12.95 12.85 13 13.45 12.5 13.4 12.5 13.35 12.45 13.15 12.4 12.85 12.1 13.1 11.8 13.35 12.05 13.7 12.1 13.75 12.1 13.8 12.15 14.25 11.55 14 11.55 13.65 11.25 13.85 10.95 14.15 11.15 14.55 11.15 14.95 10.5 14.65 10.5 14.25 10.3 14.4 9.95 14.75 10.1 14.85 10.1 15.05 10.05 15.15 10.05 15.4 9.3 15.3 9.35 15.15 9.4 14.7 9.25 14.8 8.9 15.15 8.95 15.45 8.85 15.55 8.85 15.65 8.1 15.6 8.15 15.4 8.2 14.95 8.15 15 7.75 15.35 7.8 15.65 7.6 15.7 7.6 15.7 6.85 15.65 6.9 15.45 7 15 7 15 6.6 15.35 6.6 15.6 6.4 15.6 6.35 15.65 6.3
Q 15.5 5.65 15.5 5.6
L 15.45 5.65 Z"/>
</g>

<g id="Layer0_0_MEMBER_1_MEMBER_25_MEMBER_0_MEMBER_0_MEMBER_1_FILL">
<path fill="#403430" stroke="none" d="
M 13.8 3.45
L 14.05 3.75 14.4 3.55 14.5 3.4 14.5 3.35 14.2 2.95 14.1 3.25 13.8 3.45 Z"/>
</g>

<g id="Layer0_0_MEMBER_1_MEMBER_25_MEMBER_0_MEMBER_0_MEMBER_2_FILL">
<path fill="#403430" stroke="none" d="
M 4.55 3.1
Q 2.85 4.7 2.75 7.1 2.7 9.45 4.35 11.15 6 12.9 8.35 12.95 10.7 13 12.45 11.35 14.15 9.7 14.2 7.35 14.3 5 12.65 3.3 11 1.6 8.65 1.5 6.25 1.45 4.55 3.1 Z"/>
</g>

<g id="Layer0_0_MEMBER_1_MEMBER_25_MEMBER_0_MEMBER_0_MEMBER_3_FILL">
<path fill="#403430" stroke="none" d="
M 12.85 12.1
L 13.15 12.4 13.35 12.45 13.7 12.1 13.35 12.05 13.1 11.8 12.85 12.1 Z"/>
</g>

<g id="Layer0_0_MEMBER_1_MEMBER_25_MEMBER_0_MEMBER_0_MEMBER_4_FILL">
<path fill="#403430" stroke="none" d="
M 13.65 11.25
L 14 11.55 14.2 11.55 14.45 11.15 14.15 11.15 13.85 10.95 13.65 11.25 Z"/>
</g>

<g id="Layer0_0_MEMBER_1_MEMBER_25_MEMBER_0_MEMBER_0_MEMBER_5_FILL">
<path fill="#403430" stroke="none" d="
M 11.3 13.1
L 10.9 13.3 11.1 13.7 11.25 13.8 11.7 13.6 11.4 13.45 11.3 13.1 Z"/>
</g>

<g id="Layer0_0_MEMBER_1_MEMBER_25_MEMBER_0_MEMBER_0_MEMBER_6_FILL">
<path fill="#403430" stroke="none" d="
M 11.95 12.75
L 12.2 13.15 12.3 13.2 12.35 13.25 12.75 12.95 12.45 12.85 12.25 12.55 11.95 12.75 Z"/>
</g>

<g id="Layer0_0_MEMBER_1_MEMBER_25_MEMBER_0_MEMBER_0_MEMBER_7_FILL">
<path fill="#403430" stroke="none" d="
M 14.25 10.3
L 14.65 10.5 14.85 10.5 15.05 10.05 14.85 10.1 14.75 10.1 14.4 9.95 14.25 10.3 Z"/>
</g>

<g id="Layer0_0_MEMBER_1_MEMBER_25_MEMBER_0_MEMBER_0_MEMBER_8_FILL">
<path fill="#403430" stroke="none" d="
M 15 6.6
L 15 7 15.45 7 15.65 6.9 15.6 6.4 15.35 6.6 15 6.6 Z"/>
</g>

<g id="Layer0_0_MEMBER_1_MEMBER_25_MEMBER_0_MEMBER_0_MEMBER_9_FILL">
<path fill="#403430" stroke="none" d="
M 10.2 13.5
L 9.85 13.6 9.95 14.05 10.05 14.2 10.55 14.05 10.4 13.95 10.3 13.85 10.2 13.5 Z"/>
</g>

<g id="Layer0_0_MEMBER_1_MEMBER_25_MEMBER_0_MEMBER_0_MEMBER_10_FILL">
<path fill="#403430" stroke="none" d="
M 14.7 9.25
L 15.15 9.4 15.3 9.35 15.45 8.85 15.15 8.95 14.8 8.9 14.7 9.25 Z"/>
</g>

<g id="Layer0_0_MEMBER_1_MEMBER_25_MEMBER_0_MEMBER_0_MEMBER_11_FILL">
<path fill="#403430" stroke="none" d="
M 14.8 5.5
L 14.85 5.9 15.35 5.8 15.45 5.65 15.35 5.15 15.1 5.4 14.8 5.5 Z"/>
</g>

<g id="Layer0_0_MEMBER_1_MEMBER_25_MEMBER_0_MEMBER_0_MEMBER_12_FILL">
<path fill="#403430" stroke="none" d="
M 14.4 4.45
L 14.55 4.8 15 4.6 15.1 4.45 14.85 4 14.7 4.3 14.4 4.45 Z"/>
</g>

<g id="Layer0_0_MEMBER_1_MEMBER_25_MEMBER_0_MEMBER_0_MEMBER_13_FILL">
<path fill="#403430" stroke="none" d="
M 14.95 8.15
L 15.4 8.2 15.6 8.15 15.65 7.6 15.35 7.8 15 7.75 14.95 8.15 Z"/>
</g>

<g id="Layer0_0_MEMBER_1_MEMBER_25_MEMBER_0_MEMBER_0_MEMBER_14_FILL">
<path fill="#403430" stroke="none" d="
M 2.95 10.65
L 2.55 10.9 2.5 11.05 2.45 11.1 2.75 11.5 2.9 11.2 3.15 11 2.95 10.65 Z"/>
</g>

<g id="Layer0_0_MEMBER_1_MEMBER_25_MEMBER_0_MEMBER_0_MEMBER_15_FILL">
<path fill="#403430" stroke="none" d="
M 2.6 10
L 2.45 9.65 2 9.85 1.9 10 2.1 10.45 2.3 10.15 2.6 10 Z"/>
</g>

<g id="Layer0_0_MEMBER_1_MEMBER_25_MEMBER_0_MEMBER_0_MEMBER_16_FILL">
<path fill="#403430" stroke="none" d="
M 9.1 13.7
L 8.7 13.75 8.7 14.2 8.85 14.35 9.35 14.3 9.1 14.05 9.1 13.7 Z"/>
</g>

<g id="Layer0_0_MEMBER_1_MEMBER_25_MEMBER_0_MEMBER_0_MEMBER_17_FILL">
<path fill="#403430" stroke="none" d="
M 3.9 11.85
L 3.65 11.6 3.3 11.9 3.25 12.1 3.6 12.45 3.65 12.1 3.9 11.85 Z"/>
</g>

<g id="Layer0_0_MEMBER_1_MEMBER_25_MEMBER_0_MEMBER_0_MEMBER_18_FILL">
<path fill="#403430" stroke="none" d="
M 1.95 7.45
L 1.5 7.45 1.35 7.55 1.4 8.05 1.65 7.85 2 7.85 1.95 7.45 Z"/>
</g>

<g id="Layer0_0_MEMBER_1_MEMBER_25_MEMBER_0_MEMBER_0_MEMBER_19_FILL">
<path fill="#403430" stroke="none" d="
M 2.2 8.95
L 2.1 8.55 1.65 8.65 1.5 8.8 1.65 9.3 1.8 9.1 1.85 9.05 2.2 8.95 Z"/>
</g>

<g id="Layer0_0_MEMBER_1_MEMBER_25_MEMBER_0_MEMBER_0_MEMBER_20_FILL">
<path fill="#403430" stroke="none" d="
M 6.85 13.55
L 6.45 13.45 6.3 13.85 6.35 14.05 6.85 14.2 6.75 13.85 6.85 13.55 Z"/>
</g>

<g id="Layer0_0_MEMBER_1_MEMBER_25_MEMBER_0_MEMBER_0_MEMBER_21_FILL">
<path fill="#403430" stroke="none" d="
M 7.95 13.75
L 7.55 13.7 7.5 14.15 7.6 14.3 8.1 14.35 7.9 14.05 7.95 13.75 Z"/>
</g>

<g id="Layer0_0_MEMBER_1_MEMBER_25_MEMBER_0_MEMBER_0_MEMBER_22_FILL">
<path fill="#403430" stroke="none" d="
M 5.75 13.15
L 5.4 13 5.2 13.4 5.2 13.6 5.65 13.8 5.65 13.6 5.6 13.45 5.75 13.15 Z"/>
</g>

<g id="Layer0_0_MEMBER_1_MEMBER_25_MEMBER_0_MEMBER_0_MEMBER_23_FILL">
<path fill="#403430" stroke="none" d="
M 4.75 12.6
L 4.45 12.35 4.2 12.7 4.15 12.9 4.55 13.2 4.6 12.85 4.75 12.6 Z"/>
</g>

<g id="Layer0_0_MEMBER_1_MEMBER_25_MEMBER_0_MEMBER_0_MEMBER_24_FILL">
<path fill="#403430" stroke="none" d="
M 4.2 1.5
L 4.5 1.6 4.7 1.9 5.05 1.7 4.8 1.3 4.65 1.25 4.6 1.2 4.2 1.5 Z"/>
</g>

<g id="Layer0_0_MEMBER_1_MEMBER_25_MEMBER_0_MEMBER_0_MEMBER_25_FILL">
<path fill="#403430" stroke="none" d="
M 9.05 0.4
L 9.05 0.7 9.4 0.75 9.45 0.3 9.4 0.15 8.9 0.1 9.05 0.4 Z"/>
</g>

<g id="Layer0_0_MEMBER_1_MEMBER_25_MEMBER_0_MEMBER_0_MEMBER_26_FILL">
<path fill="#403430" stroke="none" d="
M 11.2 1.3
L 11.55 1.45 11.8 1.05 11.75 0.85 11.3 0.65 11.35 0.85 11.35 1 11.2 1.3 Z"/>
</g>

<g id="Layer0_0_MEMBER_1_MEMBER_25_MEMBER_0_MEMBER_0_MEMBER_27_FILL">
<path fill="#403430" stroke="none" d="
M 10.25 0.6
L 10.15 0.9 10.5 1 10.65 0.55 10.6 0.4 10.15 0.25 10.25 0.6 Z"/>
</g>

<g id="Layer0_0_MEMBER_1_MEMBER_25_MEMBER_0_MEMBER_0_MEMBER_28_FILL">
<path fill="#403430" stroke="none" d="
M 6.4 0.4
L 6.6 0.5 6.65 0.6 6.75 0.95 7.15 0.85 7.05 0.4 6.9 0.25 6.4 0.4 Z"/>
</g>

<g id="Layer0_0_MEMBER_1_MEMBER_25_MEMBER_0_MEMBER_0_MEMBER_29_FILL">
<path fill="#403430" stroke="none" d="
M 3.1 3.5
L 3.35 3.2 3 2.9 2.8 2.9 2.5 3.3 2.85 3.3 3.1 3.5 Z"/>
</g>

<g id="Layer0_0_MEMBER_1_MEMBER_25_MEMBER_0_MEMBER_0_MEMBER_30_FILL">
<path fill="#403430" stroke="none" d="
M 2.2 5.55
L 2.3 5.2 1.85 5.05 1.65 5.1 1.55 5.6 1.85 5.5 2.2 5.55 Z"/>
</g>

<g id="Layer0_0_MEMBER_1_MEMBER_25_MEMBER_0_MEMBER_0_MEMBER_31_FILL">
<path fill="#403430" stroke="none" d="
M 7.65 0.15
L 7.85 0.4 7.9 0.75 8.25 0.7 8.25 0.25 8.15 0.1 7.65 0.15 Z"/>
</g>

<g id="Layer0_0_MEMBER_1_MEMBER_25_MEMBER_0_MEMBER_0_MEMBER_32_FILL">
<path fill="#403430" stroke="none" d="
M 5.25 0.85
L 5.55 1 5.7 1.3 6.05 1.15 5.9 0.75 5.7 0.65 5.25 0.85 Z"/>
</g>

<g id="Layer0_0_MEMBER_1_MEMBER_25_MEMBER_0_MEMBER_0_MEMBER_33_FILL">
<path fill="#403430" stroke="none" d="
M 2.55 4.5
L 2.75 4.15 2.3 3.95 2.15 3.95 1.9 4.4 2.15 4.35 2.25 4.35 2.55 4.5 Z"/>
</g>

<g id="Layer0_0_MEMBER_1_MEMBER_25_MEMBER_0_MEMBER_0_MEMBER_34_FILL">
<path fill="#403430" stroke="none" d="
M 2 6.7
L 2.05 6.3 1.55 6.25 1.4 6.3 1.35 6.8 1.65 6.65 2 6.7 Z"/>
</g>

<g id="Layer0_0_MEMBER_1_MEMBER_25_MEMBER_0_MEMBER_0_MEMBER_35_FILL">
<path fill="#403430" stroke="none" d="
M 12.2 1.85
L 12.5 2.1 12.8 1.7 12.8 1.55 12.4 1.25 12.4 1.6 12.2 1.85 Z"/>
</g>

<g id="Layer0_0_MEMBER_1_MEMBER_25_MEMBER_0_MEMBER_0_MEMBER_36_FILL">
<path fill="#403430" stroke="none" d="
M 3.85 2.65
L 4.15 2.35 3.8 2 3.65 1.95 3.3 2.35 3.6 2.4 3.85 2.65 Z"/>
</g>

<g id="Layer0_0_MEMBER_1_MEMBER_25_MEMBER_0_MEMBER_0_MEMBER_37_FILL">
<path fill="#403430" stroke="none" d="
M 13.3 2.35
L 13.1 2.6 13.35 2.85 13.7 2.55 13.75 2.35 13.4 2 13.3 2.35 Z"/>
</g>

<g id="Layer0_0_MEMBER_1_MEMBER_25_MEMBER_1_FILL">
<path fill="#FDFDFD" stroke="none" d="
M 3.1 7.2
Q 3.1 9.45 4.7 11.05 6.25 12.6 8.5 12.6 10.7 12.6 12.3 11.05 13.9 9.45 13.9 7.2 13.9 5 12.3 3.4 10.7 1.85 8.5 1.85 6.25 1.85 4.7 3.4 3.1 5 3.1 7.2 Z"/>
</g>

<g id="Layer0_0_MEMBER_1_MEMBER_25_MEMBER_2_FILL">
<path fill="#403430" stroke="none" d="
M 4.05 7.2
Q 4.05 9.05 5.35 10.35 6.65 11.65 8.5 11.65 10.35 11.65 11.65 10.35 12.95 9.05 12.95 7.2 12.95 5.35 11.65 4.1 10.35 2.8 8.5 2.8 6.65 2.8 5.35 4.1 4.05 5.35 4.05 7.2 Z"/>
</g>

<g id="Layer0_0_MEMBER_1_MEMBER_25_MEMBER_3_MEMBER_0_MEMBER_0_MEMBER_0_FILL">
<path fill="#DAD1D1" stroke="none" d="
M 8.25 7.95
L 8.75 6.45 4.1 5.25 3.8 6.2 8.25 7.95 Z"/>
</g>

<g id="Layer0_0_MEMBER_1_MEMBER_25_MEMBER_3_MEMBER_0_MEMBER_1_MEMBER_0_FILL">
<path fill="#DAD1D1" stroke="none" d="
M 9.1 7.65
L 7.85 6.75 5.3 10.75 6.1 11.35 9.1 7.65 Z"/>
</g>

<g id="Layer0_0_MEMBER_1_MEMBER_25_MEMBER_3_MEMBER_0_MEMBER_2_MEMBER_0_FILL">
<path fill="#DAD1D1" stroke="none" d="
M 9.1 6.75
L 7.85 7.65 10.9 11.35 11.7 10.75 9.1 6.75 Z"/>
</g>

<g id="Layer0_0_MEMBER_1_MEMBER_25_MEMBER_3_MEMBER_0_MEMBER_3_MEMBER_0_FILL">
<path fill="#DAD1D1" stroke="none" d="
M 8.25 6.45
L 8.75 7.95 13.15 6.2 12.85 5.25 8.25 6.45 Z"/>
</g>

<g id="Layer0_0_MEMBER_1_MEMBER_25_MEMBER_3_MEMBER_0_MEMBER_4_MEMBER_0_FILL">
<path fill="#DAD1D1" stroke="none" d="
M 7.7 7.2
L 9.25 7.2 9 2.45 8 2.45 7.7 7.2 Z"/>
</g>

<g id="Layer0_0_MEMBER_1_MEMBER_25_MEMBER_3_MEMBER_1_FILL">
<path fill="#FDFDFD" stroke="none" d="
M 6.85 7.2
Q 6.85 7.9 7.35 8.35 7.85 8.85 8.5 8.85 9.15 8.85 9.65 8.35 10.1 7.9 10.1 7.2 10.1 6.55 9.65 6.05 9.2 5.6 8.5 5.6 7.8 5.6 7.35 6.05 6.85 6.55 6.85 7.2 Z"/>
</g>

<g id="Layer0_0_MEMBER_1_MEMBER_26_FILL">
<path fill="#C44645" stroke="none" d="
M 225.3 500
L 225.3 552.95
Q 238.7982421875 543.4 256.25 543.4
L 310.25 543.4
Q 326.9310546875 543.4 340 552.1
L 340 536.6
Q 326.4298828125 529.9 310.25 529.9
L 299.25 529.9
Q 289.25 529.9 281.75 522.9 274.75 515.4 274.75 505.4
L 274.75 500 225.3 500 Z"/>
</g>

<g id="Layer0_0_MEMBER_1_MEMBER_27_FILL">
<path fill="#000000" fill-opacity="0.09803921568627451" stroke="none" d="
M 84.75 8.05
L 85.15 6.1 0.35 0 0.05 1.5
Q -0.05 2.05 0.25 2.55 0.55 3.05 1.1 3.15
L 3.1 3.55 3.05 4.75
Q 3.1 5.85 3.2 6.2 3.35 6.75 3.95 7.25 4.9 8.15 10.25 10.1
L 80.75 10.1 82.6 9.85
Q 84.25 9.7 84.75 8.05 Z"/>
</g>

<g id="Layer0_0_MEMBER_1_MEMBER_28_FILL">
<path fill="#E75C5B" stroke="none" d="
M 32.05 116.3
Q 32.25 113.85 34.1 112.1 35.95 110.4 38.4 110.4
L 41.55 110.4
Q 32.3 108.25 32.05 116.3 Z"/>
</g>

<g id="Layer0_0_MEMBER_1_MEMBER_29_FILL">
<path fill="#E75C5B" stroke="none" d="
M 92.05 110.4
Q 82.75 108.25 82.55 116.3 82.75 113.85 84.6 112.1 86.45 110.4 88.9 110.4
L 92.05 110.4 Z"/>
</g>

<g id="Layer0_0_MEMBER_1_MEMBER_30_MEMBER_0_FILL">
<path fill="#FFFFFF" fill-opacity="0.4980392156862745" stroke="none" d="
M 0 1.05
L 5.05 7.65 10.4 7.8 4.5 0 1.15 0.1 0.8 0.25
Q 0.55 0.4 0 1.05 Z"/>
</g>

<g id="Layer0_0_MEMBER_1_MEMBER_30_MEMBER_1_FILL">
<path fill="#FFFFFF" fill-opacity="0.4980392156862745" stroke="none" d="
M 5.2 0
L 11.05 7.8 12.8 7.85 6.9 0.05 5.2 0 Z"/>
</g>

<g id="Layer0_0_MEMBER_1_MEMBER_31_MEMBER_0_FILL">
<path fill="#FFFFFF" fill-opacity="0.4980392156862745" stroke="none" d="
M 0 4.05
L 2.55 7.35 4.9 7.4 6 5 2.65 0.6
Q 1.95 0.95 1.3 2
L 0 4.05 Z"/>
</g>

<g id="Layer0_0_MEMBER_1_MEMBER_31_MEMBER_1_FILL">
<path fill="#FFFFFF" fill-opacity="0.4980392156862745" stroke="none" d="
M 3.15 0.35
L 6.25 4.45 6.9 3.1 4.6 0
Q 3.55 0.15 3.15 0.35 Z"/>
</g>
</defs>

<g transform="matrix( 10, 0, 0, 10, 117.75,659.4) ">
<use xlink:href="#Layer0_0_MEMBER_0_FILL"/>
</g>

<g transform="matrix( 10, 0, 0, 10, -131.75,-569.6) ">
<use xlink:href="#Layer0_0_MEMBER_1_MEMBER_0_FILL"/>
</g>

<g transform="matrix( 10, 0, 0, 10, -131.75,-569.6) ">
<use xlink:href="#Layer0_0_MEMBER_1_MEMBER_1_FILL"/>
</g>

<g transform="matrix( 10, 0, 0, 10, -131.75,-569.6) ">
<use xlink:href="#Layer0_0_MEMBER_1_MEMBER_2_FILL"/>
</g>

<g transform="matrix( 10, 0, 0, 10, -131.75,-569.6) ">
<use xlink:href="#Layer0_0_MEMBER_1_MEMBER_3_FILL"/>
</g>

<g transform="matrix( 10, 0, 0, 10, -131.75,-569.6) ">
<use xlink:href="#Layer0_0_MEMBER_1_MEMBER_4_FILL"/>
</g>

<g transform="matrix( 10, 0, 0, 10, -131.75,-569.6) ">
<use xlink:href="#Layer0_0_MEMBER_1_MEMBER_5_FILL"/>
</g>

<g transform="matrix( 10, 0, 0, 10, -131.75,-569.6) ">
<use xlink:href="#Layer0_0_MEMBER_1_MEMBER_6_FILL"/>
</g>

<g transform="matrix( 10, 0, 0, 10, -131.75,-569.6) ">
<use xlink:href="#Layer0_0_MEMBER_1_MEMBER_7_FILL"/>
</g>

<g transform="matrix( 10, 0, 0, 10, -131.75,-569.6) ">
<use xlink:href="#Layer0_0_MEMBER_1_MEMBER_8_FILL"/>
</g>

<g transform="matrix( 10, 0, 0, 10, -131.75,-569.6) ">
<use xlink:href="#Layer0_0_MEMBER_1_MEMBER_9_FILL"/>
</g>

<g transform="matrix( 10, 0, 0, 10, -131.75,-569.6) ">
<use xlink:href="#Layer0_0_MEMBER_1_MEMBER_10_FILL"/>
</g>

<g transform="matrix( 10, 0, 0, 10, -131.75,-569.6) ">
<use xlink:href="#Layer0_0_MEMBER_1_MEMBER_11_FILL"/>
</g>

<g transform="matrix( 10, 0, 0, 10, -131.75,-569.6) ">
<use xlink:href="#Layer0_0_MEMBER_1_MEMBER_12_FILL"/>
</g>

<g transform="matrix( 10, 0, 0, 10, -131.75,-569.6) ">
<use xlink:href="#Layer0_0_MEMBER_1_MEMBER_13_FILL"/>
</g>

<g transform="matrix( 10, 0, 0, 10, -131.75,-569.6) ">
<use xlink:href="#Layer0_0_MEMBER_1_MEMBER_14_FILL"/>
</g>

<g transform="matrix( 10, 0, 0, 10, 494.25,364.9) ">
<use xlink:href="#Layer0_0_MEMBER_1_MEMBER_15_MEMBER_0_FILL"/>
</g>

<g transform="matrix( 10, 0, 0, 10, 494.25,364.9) ">
<use xlink:href="#Layer0_0_MEMBER_1_MEMBER_15_MEMBER_1_FILL"/>
</g>

<g transform="matrix( 10, 0, 0, 10, -131.75,-569.6) ">
<use xlink:href="#Layer0_0_MEMBER_1_MEMBER_16_FILL"/>
</g>

<g transform="matrix( 1, 0, 0, 1, 0,0) ">
<use xlink:href="#Layer0_0_MEMBER_1_MEMBER_17_FILL"/>
</g>

<g transform="matrix( 10, 0, 0, 10, -131.75,-569.6) ">
<use xlink:href="#Layer0_0_MEMBER_1_MEMBER_18_MEMBER_0_FILL"/>
</g>

<g transform="matrix( 10, 0, 0, 10, -131.75,-569.6) ">
<use xlink:href="#Layer0_0_MEMBER_1_MEMBER_19_FILL"/>
</g>

<g transform="matrix( 10, 0, 0, 10, -131.75,-569.6) ">
<use xlink:href="#Layer0_0_MEMBER_1_MEMBER_20_FILL"/>
</g>

<g transform="matrix( 10, 0, 0, 10, -131.75,-569.6) ">
<use xlink:href="#Layer0_0_MEMBER_1_MEMBER_21_FILL"/>
</g>

<g transform="matrix( 10, 0, 0, 10, -131.75,-569.6) ">
<use xlink:href="#Layer0_0_MEMBER_1_MEMBER_22_FILL"/>
</g>

<g transform="matrix( 10, 0, 0, 10, 699.75,531.4) ">
<use xlink:href="#Layer0_0_MEMBER_1_MEMBER_23_MEMBER_0_MEMBER_0_MEMBER_0_FILL"/>
</g>

<g transform="matrix( 10, 0, 0, 10, 699.75,531.4) ">
<use xlink:href="#Layer0_0_MEMBER_1_MEMBER_23_MEMBER_0_MEMBER_0_MEMBER_1_FILL"/>
</g>

<g transform="matrix( 10, 0, 0, 10, 699.75,531.4) ">
<use xlink:href="#Layer0_0_MEMBER_1_MEMBER_23_MEMBER_0_MEMBER_0_MEMBER_2_FILL"/>
</g>

<g transform="matrix( 10, 0, 0, 10, 699.75,531.4) ">
<use xlink:href="#Layer0_0_MEMBER_1_MEMBER_23_MEMBER_0_MEMBER_0_MEMBER_3_FILL"/>
</g>

<g transform="matrix( 10, 0, 0, 10, 699.75,531.4) ">
<use xlink:href="#Layer0_0_MEMBER_1_MEMBER_23_MEMBER_0_MEMBER_0_MEMBER_4_FILL"/>
</g>

<g transform="matrix( 10, 0, 0, 10, 699.75,531.4) ">
<use xlink:href="#Layer0_0_MEMBER_1_MEMBER_23_MEMBER_0_MEMBER_0_MEMBER_5_FILL"/>
</g>

<g transform="matrix( 10, 0, 0, 10, 699.75,531.4) ">
<use xlink:href="#Layer0_0_MEMBER_1_MEMBER_23_MEMBER_0_MEMBER_0_MEMBER_6_FILL"/>
</g>

<g transform="matrix( 10, 0, 0, 10, 699.75,531.4) ">
<use xlink:href="#Layer0_0_MEMBER_1_MEMBER_23_MEMBER_0_MEMBER_0_MEMBER_7_FILL"/>
</g>

<g transform="matrix( 10, 0, 0, 10, 699.75,531.4) ">
<use xlink:href="#Layer0_0_MEMBER_1_MEMBER_23_MEMBER_0_MEMBER_0_MEMBER_8_FILL"/>
</g>

<g transform="matrix( 10, 0, 0, 10, 699.75,531.4) ">
<use xlink:href="#Layer0_0_MEMBER_1_MEMBER_23_MEMBER_0_MEMBER_0_MEMBER_9_FILL"/>
</g>

<g transform="matrix( 10, 0, 0, 10, 699.75,531.4) ">
<use xlink:href="#Layer0_0_MEMBER_1_MEMBER_23_MEMBER_0_MEMBER_0_MEMBER_10_FILL"/>
</g>

<g transform="matrix( 10, 0, 0, 10, 699.75,531.4) ">
<use xlink:href="#Layer0_0_MEMBER_1_MEMBER_23_MEMBER_0_MEMBER_0_MEMBER_11_FILL"/>
</g>

<g transform="matrix( 10, 0, 0, 10, 699.75,531.4) ">
<use xlink:href="#Layer0_0_MEMBER_1_MEMBER_23_MEMBER_0_MEMBER_0_MEMBER_12_FILL"/>
</g>

<g transform="matrix( 10, 0, 0, 10, 699.75,531.4) ">
<use xlink:href="#Layer0_0_MEMBER_1_MEMBER_23_MEMBER_0_MEMBER_0_MEMBER_13_FILL"/>
</g>

<g transform="matrix( 10, 0, 0, 10, 699.75,531.4) ">
<use xlink:href="#Layer0_0_MEMBER_1_MEMBER_23_MEMBER_0_MEMBER_0_MEMBER_14_FILL"/>
</g>

<g transform="matrix( 10, 0, 0, 10, 699.75,531.4) ">
<use xlink:href="#Layer0_0_MEMBER_1_MEMBER_23_MEMBER_0_MEMBER_0_MEMBER_15_FILL"/>
</g>

<g transform="matrix( 10, 0, 0, 10, 699.75,531.4) ">
<use xlink:href="#Layer0_0_MEMBER_1_MEMBER_23_MEMBER_0_MEMBER_0_MEMBER_16_FILL"/>
</g>

<g transform="matrix( 10, 0, 0, 10, 699.75,531.4) ">
<use xlink:href="#Layer0_0_MEMBER_1_MEMBER_23_MEMBER_0_MEMBER_0_MEMBER_17_FILL"/>
</g>

<g transform="matrix( 10, 0, 0, 10, 699.75,531.4) ">
<use xlink:href="#Layer0_0_MEMBER_1_MEMBER_23_MEMBER_0_MEMBER_0_MEMBER_18_FILL"/>
</g>

<g transform="matrix( 10, 0, 0, 10, 699.75,531.4) ">
<use xlink:href="#Layer0_0_MEMBER_1_MEMBER_23_MEMBER_0_MEMBER_0_MEMBER_19_FILL"/>
</g>

<g transform="matrix( 10, 0, 0, 10, 699.75,531.4) ">
<use xlink:href="#Layer0_0_MEMBER_1_MEMBER_23_MEMBER_0_MEMBER_0_MEMBER_20_FILL"/>
</g>

<g transform="matrix( 10, 0, 0, 10, 699.75,531.4) ">
<use xlink:href="#Layer0_0_MEMBER_1_MEMBER_23_MEMBER_0_MEMBER_0_MEMBER_21_FILL"/>
</g>

<g transform="matrix( 10, 0, 0, 10, 699.75,531.4) ">
<use xlink:href="#Layer0_0_MEMBER_1_MEMBER_23_MEMBER_0_MEMBER_0_MEMBER_22_FILL"/>
</g>

<g transform="matrix( 10, 0, 0, 10, 699.75,531.4) ">
<use xlink:href="#Layer0_0_MEMBER_1_MEMBER_23_MEMBER_0_MEMBER_0_MEMBER_23_FILL"/>
</g>

<g transform="matrix( 10, 0, 0, 10, 699.75,531.4) ">
<use xlink:href="#Layer0_0_MEMBER_1_MEMBER_23_MEMBER_0_MEMBER_0_MEMBER_24_FILL"/>
</g>

<g transform="matrix( 10, 0, 0, 10, 699.75,531.4) ">
<use xlink:href="#Layer0_0_MEMBER_1_MEMBER_23_MEMBER_0_MEMBER_0_MEMBER_25_FILL"/>
</g>

<g transform="matrix( 10, 0, 0, 10, 699.75,531.4) ">
<use xlink:href="#Layer0_0_MEMBER_1_MEMBER_23_MEMBER_0_MEMBER_0_MEMBER_26_FILL"/>
</g>

<g transform="matrix( 10, 0, 0, 10, 699.75,531.4) ">
<use xlink:href="#Layer0_0_MEMBER_1_MEMBER_23_MEMBER_0_MEMBER_0_MEMBER_27_FILL"/>
</g>

<g transform="matrix( 10, 0, 0, 10, 699.75,531.4) ">
<use xlink:href="#Layer0_0_MEMBER_1_MEMBER_23_MEMBER_0_MEMBER_0_MEMBER_28_FILL"/>
</g>

<g transform="matrix( 10, 0, 0, 10, 699.75,531.4) ">
<use xlink:href="#Layer0_0_MEMBER_1_MEMBER_23_MEMBER_0_MEMBER_0_MEMBER_29_FILL"/>
</g>

<g transform="matrix( 10, 0, 0, 10, 699.75,531.4) ">
<use xlink:href="#Layer0_0_MEMBER_1_MEMBER_23_MEMBER_0_MEMBER_0_MEMBER_30_FILL"/>
</g>

<g transform="matrix( 10, 0, 0, 10, 699.75,531.4) ">
<use xlink:href="#Layer0_0_MEMBER_1_MEMBER_23_MEMBER_0_MEMBER_0_MEMBER_31_FILL"/>
</g>

<g transform="matrix( 10, 0, 0, 10, 699.75,531.4) ">
<use xlink:href="#Layer0_0_MEMBER_1_MEMBER_23_MEMBER_0_MEMBER_0_MEMBER_32_FILL"/>
</g>

<g transform="matrix( 10, 0, 0, 10, 699.75,531.4) ">
<use xlink:href="#Layer0_0_MEMBER_1_MEMBER_23_MEMBER_0_MEMBER_0_MEMBER_33_FILL"/>
</g>

<g transform="matrix( 10, 0, 0, 10, 699.75,531.4) ">
<use xlink:href="#Layer0_0_MEMBER_1_MEMBER_23_MEMBER_0_MEMBER_0_MEMBER_34_FILL"/>
</g>

<g transform="matrix( 10, 0, 0, 10, 699.75,531.4) ">
<use xlink:href="#Layer0_0_MEMBER_1_MEMBER_23_MEMBER_0_MEMBER_0_MEMBER_35_FILL"/>
</g>

<g transform="matrix( 10, 0, 0, 10, 699.75,531.4) ">
<use xlink:href="#Layer0_0_MEMBER_1_MEMBER_23_MEMBER_0_MEMBER_0_MEMBER_36_FILL"/>
</g>

<g transform="matrix( 10, 0, 0, 10, 699.75,531.4) ">
<use xlink:href="#Layer0_0_MEMBER_1_MEMBER_23_MEMBER_0_MEMBER_0_MEMBER_37_FILL"/>
</g>

<g transform="matrix( 10, 0, 0, 10, 699.75,531.4) ">
<use xlink:href="#Layer0_0_MEMBER_1_MEMBER_23_MEMBER_1_FILL"/>
</g>

<g transform="matrix( 10, 0, 0, 10, 699.75,531.4) ">
<use xlink:href="#Layer0_0_MEMBER_1_MEMBER_23_MEMBER_2_FILL"/>
</g>

<g transform="matrix( 10, 0, 0, 10, 699.75,531.4) ">
<use xlink:href="#Layer0_0_MEMBER_1_MEMBER_23_MEMBER_3_MEMBER_0_MEMBER_0_MEMBER_0_FILL"/>
</g>

<g transform="matrix( 10, 0, 0, 10, 699.75,531.4) ">
<use xlink:href="#Layer0_0_MEMBER_1_MEMBER_23_MEMBER_3_MEMBER_0_MEMBER_1_MEMBER_0_FILL"/>
</g>

<g transform="matrix( 10, 0, 0, 10, 699.75,531.4) ">
<use xlink:href="#Layer0_0_MEMBER_1_MEMBER_23_MEMBER_3_MEMBER_0_MEMBER_2_MEMBER_0_FILL"/>
</g>

<g transform="matrix( 10, 0, 0, 10, 699.75,531.4) ">
<use xlink:href="#Layer0_0_MEMBER_1_MEMBER_23_MEMBER_3_MEMBER_0_MEMBER_3_MEMBER_0_FILL"/>
</g>

<g transform="matrix( 10, 0, 0, 10, 699.75,531.4) ">
<use xlink:href="#Layer0_0_MEMBER_1_MEMBER_23_MEMBER_3_MEMBER_0_MEMBER_4_MEMBER_0_FILL"/>
</g>

<g transform="matrix( 10, 0, 0, 10, 699.75,531.4) ">
<use xlink:href="#Layer0_0_MEMBER_1_MEMBER_23_MEMBER_3_MEMBER_1_FILL"/>
</g>

<g transform="matrix( 1, 0, 0, 1, 0,0) ">
<use xlink:href="#Layer0_0_MEMBER_1_MEMBER_24_FILL"/>
</g>

<g transform="matrix( 10, 0, 0, 10, 198.75,531.4) ">
<use xlink:href="#Layer0_0_MEMBER_1_MEMBER_25_MEMBER_0_MEMBER_0_MEMBER_0_FILL"/>
</g>

<g transform="matrix( 10, 0, 0, 10, 198.75,531.4) ">
<use xlink:href="#Layer0_0_MEMBER_1_MEMBER_25_MEMBER_0_MEMBER_0_MEMBER_1_FILL"/>
</g>

<g transform="matrix( 10, 0, 0, 10, 198.75,531.4) ">
<use xlink:href="#Layer0_0_MEMBER_1_MEMBER_25_MEMBER_0_MEMBER_0_MEMBER_2_FILL"/>
</g>

<g transform="matrix( 10, 0, 0, 10, 198.75,531.4) ">
<use xlink:href="#Layer0_0_MEMBER_1_MEMBER_25_MEMBER_0_MEMBER_0_MEMBER_3_FILL"/>
</g>

<g transform="matrix( 10, 0, 0, 10, 198.75,531.4) ">
<use xlink:href="#Layer0_0_MEMBER_1_MEMBER_25_MEMBER_0_MEMBER_0_MEMBER_4_FILL"/>
</g>

<g transform="matrix( 10, 0, 0, 10, 198.75,531.4) ">
<use xlink:href="#Layer0_0_MEMBER_1_MEMBER_25_MEMBER_0_MEMBER_0_MEMBER_5_FILL"/>
</g>

<g transform="matrix( 10, 0, 0, 10, 198.75,531.4) ">
<use xlink:href="#Layer0_0_MEMBER_1_MEMBER_25_MEMBER_0_MEMBER_0_MEMBER_6_FILL"/>
</g>

<g transform="matrix( 10, 0, 0, 10, 198.75,531.4) ">
<use xlink:href="#Layer0_0_MEMBER_1_MEMBER_25_MEMBER_0_MEMBER_0_MEMBER_7_FILL"/>
</g>

<g transform="matrix( 10, 0, 0, 10, 198.75,531.4) ">
<use xlink:href="#Layer0_0_MEMBER_1_MEMBER_25_MEMBER_0_MEMBER_0_MEMBER_8_FILL"/>
</g>

<g transform="matrix( 10, 0, 0, 10, 198.75,531.4) ">
<use xlink:href="#Layer0_0_MEMBER_1_MEMBER_25_MEMBER_0_MEMBER_0_MEMBER_9_FILL"/>
</g>

<g transform="matrix( 10, 0, 0, 10, 198.75,531.4) ">
<use xlink:href="#Layer0_0_MEMBER_1_MEMBER_25_MEMBER_0_MEMBER_0_MEMBER_10_FILL"/>
</g>

<g transform="matrix( 10, 0, 0, 10, 198.75,531.4) ">
<use xlink:href="#Layer0_0_MEMBER_1_MEMBER_25_MEMBER_0_MEMBER_0_MEMBER_11_FILL"/>
</g>

<g transform="matrix( 10, 0, 0, 10, 198.75,531.4) ">
<use xlink:href="#Layer0_0_MEMBER_1_MEMBER_25_MEMBER_0_MEMBER_0_MEMBER_12_FILL"/>
</g>

<g transform="matrix( 10, 0, 0, 10, 198.75,531.4) ">
<use xlink:href="#Layer0_0_MEMBER_1_MEMBER_25_MEMBER_0_MEMBER_0_MEMBER_13_FILL"/>
</g>

<g transform="matrix( 10, 0, 0, 10, 198.75,531.4) ">
<use xlink:href="#Layer0_0_MEMBER_1_MEMBER_25_MEMBER_0_MEMBER_0_MEMBER_14_FILL"/>
</g>

<g transform="matrix( 10, 0, 0, 10, 198.75,531.4) ">
<use xlink:href="#Layer0_0_MEMBER_1_MEMBER_25_MEMBER_0_MEMBER_0_MEMBER_15_FILL"/>
</g>

<g transform="matrix( 10, 0, 0, 10, 198.75,531.4) ">
<use xlink:href="#Layer0_0_MEMBER_1_MEMBER_25_MEMBER_0_MEMBER_0_MEMBER_16_FILL"/>
</g>

<g transform="matrix( 10, 0, 0, 10, 198.75,531.4) ">
<use xlink:href="#Layer0_0_MEMBER_1_MEMBER_25_MEMBER_0_MEMBER_0_MEMBER_17_FILL"/>
</g>

<g transform="matrix( 10, 0, 0, 10, 198.75,531.4) ">
<use xlink:href="#Layer0_0_MEMBER_1_MEMBER_25_MEMBER_0_MEMBER_0_MEMBER_18_FILL"/>
</g>

<g transform="matrix( 10, 0, 0, 10, 198.75,531.4) ">
<use xlink:href="#Layer0_0_MEMBER_1_MEMBER_25_MEMBER_0_MEMBER_0_MEMBER_19_FILL"/>
</g>

<g transform="matrix( 10, 0, 0, 10, 198.75,531.4) ">
<use xlink:href="#Layer0_0_MEMBER_1_MEMBER_25_MEMBER_0_MEMBER_0_MEMBER_20_FILL"/>
</g>

<g transform="matrix( 10, 0, 0, 10, 198.75,531.4) ">
<use xlink:href="#Layer0_0_MEMBER_1_MEMBER_25_MEMBER_0_MEMBER_0_MEMBER_21_FILL"/>
</g>

<g transform="matrix( 10, 0, 0, 10, 198.75,531.4) ">
<use xlink:href="#Layer0_0_MEMBER_1_MEMBER_25_MEMBER_0_MEMBER_0_MEMBER_22_FILL"/>
</g>

<g transform="matrix( 10, 0, 0, 10, 198.75,531.4) ">
<use xlink:href="#Layer0_0_MEMBER_1_MEMBER_25_MEMBER_0_MEMBER_0_MEMBER_23_FILL"/>
</g>

<g transform="matrix( 10, 0, 0, 10, 198.75,531.4) ">
<use xlink:href="#Layer0_0_MEMBER_1_MEMBER_25_MEMBER_0_MEMBER_0_MEMBER_24_FILL"/>
</g>

<g transform="matrix( 10, 0, 0, 10, 198.75,531.4) ">
<use xlink:href="#Layer0_0_MEMBER_1_MEMBER_25_MEMBER_0_MEMBER_0_MEMBER_25_FILL"/>
</g>

<g transform="matrix( 10, 0, 0, 10, 198.75,531.4) ">
<use xlink:href="#Layer0_0_MEMBER_1_MEMBER_25_MEMBER_0_MEMBER_0_MEMBER_26_FILL"/>
</g>

<g transform="matrix( 10, 0, 0, 10, 198.75,531.4) ">
<use xlink:href="#Layer0_0_MEMBER_1_MEMBER_25_MEMBER_0_MEMBER_0_MEMBER_27_FILL"/>
</g>

<g transform="matrix( 10, 0, 0, 10, 198.75,531.4) ">
<use xlink:href="#Layer0_0_MEMBER_1_MEMBER_25_MEMBER_0_MEMBER_0_MEMBER_28_FILL"/>
</g>

<g transform="matrix( 10, 0, 0, 10, 198.75,531.4) ">
<use xlink:href="#Layer0_0_MEMBER_1_MEMBER_25_MEMBER_0_MEMBER_0_MEMBER_29_FILL"/>
</g>

<g transform="matrix( 10, 0, 0, 10, 198.75,531.4) ">
<use xlink:href="#Layer0_0_MEMBER_1_MEMBER_25_MEMBER_0_MEMBER_0_MEMBER_30_FILL"/>
</g>

<g transform="matrix( 10, 0, 0, 10, 198.75,531.4) ">
<use xlink:href="#Layer0_0_MEMBER_1_MEMBER_25_MEMBER_0_MEMBER_0_MEMBER_31_FILL"/>
</g>

<g transform="matrix( 10, 0, 0, 10, 198.75,531.4) ">
<use xlink:href="#Layer0_0_MEMBER_1_MEMBER_25_MEMBER_0_MEMBER_0_MEMBER_32_FILL"/>
</g>

<g transform="matrix( 10, 0, 0, 10, 198.75,531.4) ">
<use xlink:href="#Layer0_0_MEMBER_1_MEMBER_25_MEMBER_0_MEMBER_0_MEMBER_33_FILL"/>
</g>

<g transform="matrix( 10, 0, 0, 10, 198.75,531.4) ">
<use xlink:href="#Layer0_0_MEMBER_1_MEMBER_25_MEMBER_0_MEMBER_0_MEMBER_34_FILL"/>
</g>

<g transform="matrix( 10, 0, 0, 10, 198.75,531.4) ">
<use xlink:href="#Layer0_0_MEMBER_1_MEMBER_25_MEMBER_0_MEMBER_0_MEMBER_35_FILL"/>
</g>

<g transform="matrix( 10, 0, 0, 10, 198.75,531.4) ">
<use xlink:href="#Layer0_0_MEMBER_1_MEMBER_25_MEMBER_0_MEMBER_0_MEMBER_36_FILL"/>
</g>

<g transform="matrix( 10, 0, 0, 10, 198.75,531.4) ">
<use xlink:href="#Layer0_0_MEMBER_1_MEMBER_25_MEMBER_0_MEMBER_0_MEMBER_37_FILL"/>
</g>

<g transform="matrix( 10, 0, 0, 10, 198.75,531.4) ">
<use xlink:href="#Layer0_0_MEMBER_1_MEMBER_25_MEMBER_1_FILL"/>
</g>

<g transform="matrix( 10, 0, 0, 10, 198.75,531.4) ">
<use xlink:href="#Layer0_0_MEMBER_1_MEMBER_25_MEMBER_2_FILL"/>
</g>

<g transform="matrix( 10, 0, 0, 10, 198.75,531.4) ">
<use xlink:href="#Layer0_0_MEMBER_1_MEMBER_25_MEMBER_3_MEMBER_0_MEMBER_0_MEMBER_0_FILL"/>
</g>

<g transform="matrix( 10, 0, 0, 10, 198.75,531.4) ">
<use xlink:href="#Layer0_0_MEMBER_1_MEMBER_25_MEMBER_3_MEMBER_0_MEMBER_1_MEMBER_0_FILL"/>
</g>

<g transform="matrix( 10, 0, 0, 10, 198.75,531.4) ">
<use xlink:href="#Layer0_0_MEMBER_1_MEMBER_25_MEMBER_3_MEMBER_0_MEMBER_2_MEMBER_0_FILL"/>
</g>

<g transform="matrix( 10, 0, 0, 10, 198.75,531.4) ">
<use xlink:href="#Layer0_0_MEMBER_1_MEMBER_25_MEMBER_3_MEMBER_0_MEMBER_3_MEMBER_0_FILL"/>
</g>

<g transform="matrix( 10, 0, 0, 10, 198.75,531.4) ">
<use xlink:href="#Layer0_0_MEMBER_1_MEMBER_25_MEMBER_3_MEMBER_0_MEMBER_4_MEMBER_0_FILL"/>
</g>

<g transform="matrix( 10, 0, 0, 10, 198.75,531.4) ">
<use xlink:href="#Layer0_0_MEMBER_1_MEMBER_25_MEMBER_3_MEMBER_1_FILL"/>
</g>

<g transform="matrix( 1, 0, 0, 1, 0,0) ">
<use xlink:href="#Layer0_0_MEMBER_1_MEMBER_26_FILL"/>
</g>

<g transform="matrix( 10, 0, 0, 10, 83.75,525.9) ">
<use xlink:href="#Layer0_0_MEMBER_1_MEMBER_27_FILL"/>
</g>

<g transform="matrix( 10, 0, 0, 10, -131.75,-569.6) ">
<use xlink:href="#Layer0_0_MEMBER_1_MEMBER_28_FILL"/>
</g>

<g transform="matrix( 10, 0, 0, 10, -131.75,-569.6) ">
<use xlink:href="#Layer0_0_MEMBER_1_MEMBER_29_FILL"/>
</g>

<g transform="matrix( 10, 0, 0, 10, 325.75,362.9) ">
<use xlink:href="#Layer0_0_MEMBER_1_MEMBER_30_MEMBER_0_FILL"/>
</g>

<g transform="matrix( 10, 0, 0, 10, 325.75,362.9) ">
<use xlink:href="#Layer0_0_MEMBER_1_MEMBER_30_MEMBER_1_FILL"/>
</g>

<g transform="matrix( 10, 0, 0, 10, 191.75,362.4) ">
<use xlink:href="#Layer0_0_MEMBER_1_MEMBER_31_MEMBER_0_FILL"/>
</g>

<g transform="matrix( 10, 0, 0, 10, 191.75,362.4) ">
<use xlink:href="#Layer0_0_MEMBER_1_MEMBER_31_MEMBER_1_FILL"/>
</g>
</svg>
