<?xml version="1.0" encoding="UTF-8"?>
<svg width="21px" height="21px" viewBox="0 0 21 21" version="1.1" xmlns="http://www.w3.org/2000/svg" xmlns:xlink="http://www.w3.org/1999/xlink">
    <title>编组 31</title>
    <g id="页面-1" stroke="none" stroke-width="1" fill="none" fill-rule="evenodd">
        <g id="人群管理-APP圈人" transform="translate(-1273.000000, -294.000000)">
            <g id="编组-31" transform="translate(1273.000000, 294.000000)">
                <path d="M2.83215344,2.83215344 C1.26799829,1.26799829 1.79044819,0 3.99936922,0 L17.0006308,0 C19.2094214,0 21,1.79044819 21,3.99936922 L21,17.0006308 C21,19.2094214 19.7336479,19.7336479 18.1678466,18.1678466 L2.83215344,2.83215344 Z" id="Bg备份-8" fill-opacity="0.85" fill="#69A7F8"></path>
                <path d="M17.584375,9.659375 L16.553125,9.6546875 L15,7.803125 L13.4484375,9.653125 L12.415625,9.6578125 C12.346875,9.6578125 12.290625,9.603125 12.290625,9.5328125 C12.290625,9.503125 12.3015625,9.475 12.3203125,9.4515625 L14.353125,7.0296875 L12.3203125,4.609375 C12.3015625,4.5859375 12.290625,4.5578125 12.290625,4.528125 C12.290625,4.459375 12.346875,4.403125 12.415625,4.403125 L13.4484375,4.4078125 L15,6.259375 L16.5515625,4.409375 L17.5828125,4.4046875 C17.6515625,4.4046875 17.7078125,4.459375 17.7078125,4.5296875 C17.7078125,4.559375 17.696875,4.5875 17.678125,4.6109375 L15.6484375,7.03125 L17.6796875,9.453125 C17.6984375,9.4765625 17.709375,9.5046875 17.709375,9.534375 C17.709375,9.603125 17.653125,9.659375 17.584375,9.659375 Z" id="路径" fill="#FFFFFF"></path>
            </g>
        </g>
    </g>
</svg>