<?xml version="1.0" encoding="UTF-8"?>
<svg width="22px" height="22px" viewBox="0 0 22 22" version="1.1" xmlns="http://www.w3.org/2000/svg" xmlns:xlink="http://www.w3.org/1999/xlink">
    <title>电脑</title>
    <g id="页面-1" stroke="none" stroke-width="1" fill="none" fill-rule="evenodd">
        <g id="1风格1-定稿备份" transform="translate(-264.000000, -104.000000)" fill="#418FF6" fill-rule="nonzero">
            <g id="电脑" transform="translate(264.000000, 104.000000)">
                <path d="M17.2857143,0 L4.71428571,0 C2.11064955,0 0,2.11064955 0,4.71428571 L0,13.3571429 C0,15.960779 2.11064955,18.0714286 4.71428571,18.0714286 L7.85714286,18.0714286 L7.85714286,20.0357143 L6.875,20.0357143 C6.3325625,20.0357143 5.89285714,20.4754196 5.89285714,21.0178571 C5.89285714,21.5602701 6.3325625,22 6.875,22 L15.125,22 C15.6674375,22 16.1071429,21.5602701 16.1071429,21.0178571 C16.1071429,20.4754196 15.6674375,20.0357143 15.125,20.0357143 L14.1428571,20.0357143 L14.1428571,18.0714286 L17.2857143,18.0714286 C19.8893504,18.0714286 22,15.960779 22,13.3571429 L22,4.71428571 C22,2.11064955 19.8893504,0 17.2857143,0 Z M4.71428571,1.96428571 L17.2857143,1.96428571 C18.8020692,1.96428571 20.0357143,3.1979308 20.0357143,4.71428571 L20.0357143,12.1785714 L1.96428571,12.1785714 L1.96428571,4.71428571 C1.96428571,3.1979308 3.1979308,1.96428571 4.71428571,1.96428571 Z M12.1785714,20.0357143 L9.82142857,20.0357143 L9.82142857,18.0714286 L12.1785714,18.0714286 L12.1785714,20.0357143 Z M17.2857143,16.1071429 L4.71428571,16.1071429 C3.47104018,16.1071429 2.41914062,15.2773058 2.08010491,14.1428571 L19.9198951,14.1428571 C19.5808594,15.2773058 18.5289598,16.1071429 17.2857143,16.1071429 Z" id="形状"></path>
            </g>
        </g>
    </g>
</svg>