<?xml version="1.0" standalone="no"?><!DOCTYPE svg PUBLIC "-//W3C//DTD SVG 1.1//EN" "http://www.w3.org/Graphics/SVG/1.1/DTD/svg11.dtd"><svg t="1678931984313" class="icon" viewBox="0 0 1024 1024" version="1.1" xmlns="http://www.w3.org/2000/svg" p-id="19016" width="24" height="24" xmlns:xlink="http://www.w3.org/1999/xlink"><path d="M433.567135 601.28173a138.378378 138.378378 0 1 1 184.569081 0A221.433081 221.433081 0 0 1 747.243243 802.594595a27.675676 27.675676 0 0 1-55.351351 0 166.054054 166.054054 0 1 0-332.108108 0 27.675676 27.675676 0 0 1-55.351352 0 221.433081 221.433081 0 0 1 129.134703-201.312865zM525.837838 581.189189a83.027027 83.027027 0 1 0 0-166.054054 83.027027 83.027027 0 0 0 0 166.054054z" fill="#ea986c" p-id="19017"></path><path d="M488.143568 38.745946L23.385946 449.120865a27.675676 27.675676 0 0 0 18.293622 48.432432h137.824864V968.648649a55.351351 55.351351 0 0 0 55.351352 55.351351H819.2a55.351351 55.351351 0 0 0 55.351351-55.351351V497.497946h107.381622a27.675676 27.675676 0 0 0 18.930162-47.878919L562.563459 39.825297a55.351351 55.351351 0 0 0-74.447567-1.051675z m331.028756 403.400649V968.648649H234.883459V442.146595H114.854054L524.758486 80.259459l387.044325 361.887136H819.2z" fill="#ea986c" p-id="19018"></path></svg>