<?xml version="1.0" standalone="no"?><!DOCTYPE svg PUBLIC "-//W3C//DTD SVG 1.1//EN" "http://www.w3.org/Graphics/SVG/1.1/DTD/svg11.dtd"><svg t="1678958591811" class="icon" viewBox="0 0 1112 1024" version="1.1" xmlns="http://www.w3.org/2000/svg" p-id="4352" xmlns:xlink="http://www.w3.org/1999/xlink" width="17.375" height="16"><path d="M764.228267 901.12A22.186667 22.186667 0 0 0 785.732267 879.104a229.546667 229.546667 0 0 0-211.797334-229.034667 146.773333 146.773333 0 1 0-34.133333 0A230.058667 230.058667 0 0 0 326.638933 879.104a22.186667 22.186667 0 0 0 44.373334 0 185.514667 185.514667 0 0 1 371.029333 0 22.186667 22.186667 0 0 0 22.186667 22.016zM454.2976 504.32a102.4 102.4 0 1 1 102.4 102.4 102.4 102.4 0 0 1-102.4-102.4z" fill="#FFD067" p-id="4353"></path><path d="M163.4816 677.546667a24.405333 24.405333 0 0 0 48.64 0V424.106667A24.405333 24.405333 0 0 0 188.398933 399.701333H57.668267c45.909333-34.133333 290.133333-204.8 492.544-343.893333a27.306667 27.306667 0 0 0 3.242666-2.730667c1.365333-1.194667 13.482667-11.264 36.864 2.389334l125.952 91.306666v1.024a24.405333 24.405333 0 0 0 18.261334 4.266667 23.722667 23.722667 0 0 0 17.066666-9.728 24.234667 24.234667 0 0 0 4.266667-18.090667 23.381333 23.381333 0 0 0-8.874667-15.189333L616.6016 15.018667C564.8896-15.530667 529.732267 8.704 521.198933 17.066667l-24.746666 17.066666C383.6416 111.786667 40.772267 349.013333 17.732267 368.810667a43.008 43.008 0 0 0-17.066667 42.325333 56.832 56.832 0 0 0 39.594667 36.181333 26.624 26.624 0 0 0 6.997333 1.024h116.224zM523.9296 974.165333h-3.413333c-54.442667 0-187.733333 2.048-251.733334 0a53.418667 53.418667 0 0 1-56.661333-51.2v-68.266666a24.405333 24.405333 0 0 0-48.64 0v69.461333a102.4 102.4 0 0 0 103.765333 98.474667c24.234667 0 60.416 1.194667 102.4 1.194666 58.709333 0 118.442667 0 144.042667-1.024h11.093333a23.552 23.552 0 0 0 17.066667-7.168 23.893333 23.893333 0 0 0 6.826667-17.066666 24.576 24.576 0 0 0-24.746667-24.405334zM1102.148267 367.445333a30.037333 30.037333 0 0 0-4.778667-4.437333l-208.042667-150.698667a24.405333 24.405333 0 0 0-34.133333 5.461334 23.722667 23.722667 0 0 0 2.730667 31.232l204.8 148.650666-3.754667 2.048-125.098667 9.898667a24.405333 24.405333 0 0 0-22.357333 24.405333l5.290667 484.352a58.88 58.88 0 0 1-44.202667 56.149334H720.878933a24.405333 24.405333 0 1 0 0 48.64h155.136a22.016 22.016 0 0 0 6.826667-1.024 108.373333 108.373333 0 0 0 82.261333-104.789334l-4.949333-460.8 106.666667-8.533333a22.186667 22.186667 0 0 0 7.168-1.536A56.149333 56.149333 0 0 0 1111.364267 409.6a49.152 49.152 0 0 0-9.216-42.154667z" p-id="4354" fill="#FFD067"></path></svg>