<?xml version="1.0" standalone="no"?><!DOCTYPE svg PUBLIC "-//W3C//DTD SVG 1.1//EN" "http://www.w3.org/Graphics/SVG/1.1/DTD/svg11.dtd"><svg t="1678948398052" class="icon" viewBox="0 0 1024 1024" version="1.1" xmlns="http://www.w3.org/2000/svg" p-id="22694" xmlns:xlink="http://www.w3.org/1999/xlink" width="24" height="24"><path d="M512 269.312c65.536 0 118.784-53.248 118.784-118.784 0-65.536-53.248-118.784-118.784-118.784-65.536 0-118.784 53.248-118.784 118.784C393.216 216.064 446.464 269.312 512 269.312zM609.28 345.088 414.72 345.088c-47.104 0-84.992 37.888-84.992 84.992l0 243.712c0 43.008 32.768 78.848 75.776 83.968l9.216 1.024 0 207.872 0 0 0 25.6 0 0L440.32 992.256l143.36 0 25.6 0 0-25.6L609.28 757.76l9.216-1.024c43.008-5.12 75.776-40.96 75.776-83.968L694.272 429.056C694.272 382.976 656.384 345.088 609.28 345.088z" p-id="22695" fill="#5EA3FF"></path></svg>