<?xml version="1.0" standalone="no"?><!DOCTYPE svg PUBLIC "-//W3C//DTD SVG 1.1//EN" "http://www.w3.org/Graphics/SVG/1.1/DTD/svg11.dtd"><svg t="1684378495150" class="icon" viewBox="0 0 1024 1024" version="1.1" xmlns="http://www.w3.org/2000/svg" p-id="30018" xmlns:xlink="http://www.w3.org/1999/xlink" width="24" height="24"><path d="M512.03456 542.08c128 0 229.76-120.32 229.76-268.8C741.79456 67.84 640.03456 4.48 512.03456 4.48s-229.76 64-229.76 268.8C282.27456 421.76 384.03456 542.08 512.03456 542.08zM1018.91456 937.6l-115.84-260.48a56.32 56.32 0 0 0-26.24-28.16l-179.84-93.44a12.16 12.16 0 0 0-12.16 0 282.88 282.88 0 0 1-345.6 0 12.16 12.16 0 0 0-12.16 0L147.23456 648.96a56.32 56.32 0 0 0-26.24 28.16L5.15456 937.6a56.32 56.32 0 0 0 4.48 55.04 56.96 56.96 0 0 0 48.64 26.88h907.52a56.96 56.96 0 0 0 48.64-26.88 56.32 56.32 0 0 0 4.48-55.04z" p-id="30019" fill="#1296db"></path></svg>